<?xml version="1.0" encoding="UTF-8"?><svg id="Layer_1" xmlns="http://www.w3.org/2000/svg" viewBox="0 0 703.5 216"><defs><style>.cls-1{fill:#b61f24;}.cls-2{stroke:#000;stroke-width:.4px;}</style></defs><polygon points="341.5 85.7 257.7 85.7 257.7 .1 208.1 .1 208.1 215.4 257.7 215.4 257.7 129.8 341.5 129.8 341.5 215.4 391.1 215.4 391.1 45.6 341.5 45.6 341.5 85.7"/><path class="cls-2" d="M656.5,74.1c-3-20.5-23.2-36-46.5-36-42,0-57.8,34.6-57.8,70.6s15.8,68.8,57.8,68.8c28.6,0,44.7-19,48.2-46.1h45.3c-4.8,51.3-41.4,84.1-93.5,84.1-65.8,0-104.5-47.5-104.5-106.9S544.2,0,610,0c46.7,0,86,26.5,91.7,74l-45.2,.1Z"/><polygon points="605.5 .1 546.1 .1 558.5 19.2 605.5 .1"/><polyline class="cls-1" points="341.5 .1 341.5 45.6 426.3 45.6 426.3 215.4 478.3 215.4 478.3 45.7 563.5 45.7 563.5 .1"/><path class="cls-2" d="M151.1,74.3c-3-20.4-23.2-36-46.4-36-41.9,.1-57.7,34.5-57.7,70.5s15.8,68.8,57.7,68.8c28.5,0,44.6-19,48.2-46h45.2c-4.8,51.2-41.3,84-93.4,84C39,215.6,.3,168.1,.3,108.8S39,.4,104.7,.4c46.7,0,85.9,26.5,91.6,73.9h-45.2Z"/></svg>