<?xml version="1.0" encoding="UTF-8"?><svg id="Layer_1" xmlns="http://www.w3.org/2000/svg" viewBox="0 0 1209.79 216"><defs><style>.cls-1{fill:#b61f24;}.cls-2{stroke:#000;stroke-width:.4px;}.cls-3{isolation:isolate;}</style></defs><g class="cls-3"><path class="cls-1" d="M746.8,85.72v-9.49h42.06v9.49h-15.39v41.85h-11.29v-41.85h-15.39Z"/><path class="cls-1" d="M803.89,76.23v19.34h.22c1.29-2.16,2.95-3.73,4.96-4.71,2.01-.98,3.98-1.47,5.9-1.47,2.73,0,4.97,.37,6.72,1.11,1.75,.74,3.13,1.77,4.13,3.09,1.01,1.32,1.71,2.92,2.12,4.82,.41,1.89,.61,3.99,.61,6.29v22.86h-10.21v-21c0-3.07-.48-5.36-1.44-6.87-.96-1.51-2.66-2.27-5.1-2.27-2.78,0-4.79,.83-6.04,2.48-1.25,1.65-1.87,4.38-1.87,8.16v19.49h-10.21v-51.34h10.21Z"/><path class="cls-1" d="M846.02,90.4v6.9h.14c.48-1.15,1.12-2.22,1.94-3.2,.81-.98,1.75-1.82,2.8-2.52,1.05-.69,2.18-1.23,3.38-1.62,1.2-.38,2.45-.58,3.74-.58,.67,0,1.41,.12,2.23,.36v9.49c-.48-.1-1.05-.18-1.73-.25-.67-.07-1.32-.11-1.94-.11-1.87,0-3.45,.31-4.75,.93-1.29,.62-2.34,1.47-3.13,2.55-.79,1.08-1.35,2.34-1.69,3.77-.34,1.44-.5,3-.5,4.67v16.75h-10.21v-37.17h9.71Z"/><path class="cls-1" d="M863.2,100.93c.91-2.42,2.2-4.48,3.88-6.18,1.68-1.7,3.69-3.02,6.04-3.95,2.35-.93,4.98-1.4,7.91-1.4s5.57,.47,7.95,1.4c2.37,.93,4.4,2.25,6.08,3.95,1.68,1.7,2.97,3.76,3.88,6.18,.91,2.42,1.37,5.12,1.37,8.09s-.46,5.66-1.37,8.05c-.91,2.4-2.21,4.45-3.88,6.15-1.68,1.7-3.7,3.01-6.08,3.92-2.37,.91-5.02,1.37-7.95,1.37s-5.56-.46-7.91-1.37c-2.35-.91-4.36-2.22-6.04-3.92-1.68-1.7-2.97-3.75-3.88-6.15-.91-2.4-1.37-5.08-1.37-8.05s.46-5.67,1.37-8.09Zm9.28,12.44c.29,1.41,.78,2.68,1.47,3.81,.69,1.13,1.62,2.03,2.77,2.7,1.15,.67,2.59,1.01,4.31,1.01s3.18-.33,4.35-1.01c1.17-.67,2.11-1.57,2.8-2.7,.69-1.13,1.19-2.4,1.47-3.81,.29-1.41,.43-2.86,.43-4.35s-.14-2.95-.43-4.39c-.29-1.44-.78-2.71-1.47-3.81-.7-1.1-1.63-2-2.8-2.7-1.17-.69-2.62-1.04-4.35-1.04s-3.16,.35-4.31,1.04c-1.15,.7-2.07,1.59-2.77,2.7-.7,1.1-1.19,2.37-1.47,3.81-.29,1.44-.43,2.9-.43,4.39s.14,2.94,.43,4.35Z"/><path class="cls-1" d="M932.09,127.57v-5.18h-.22c-1.29,2.16-2.97,3.71-5.03,4.67-2.06,.96-4.17,1.44-6.33,1.44-2.73,0-4.97-.36-6.72-1.08-1.75-.72-3.13-1.74-4.13-3.06s-1.71-2.92-2.12-4.82c-.41-1.89-.61-3.99-.61-6.29v-22.86h10.21v21c0,3.07,.48,5.36,1.44,6.87,.96,1.51,2.66,2.27,5.1,2.27,2.78,0,4.79-.83,6.04-2.48,1.25-1.65,1.87-4.37,1.87-8.16v-19.49h10.21v37.17h-9.71Z"/><path class="cls-1" d="M984.68,130.3c-.41,1.92-1.28,3.7-2.62,5.36-1.34,1.65-3.28,3.06-5.82,4.21-2.54,1.15-5.94,1.73-10.21,1.73-1.82,0-3.68-.23-5.57-.68-1.89-.46-3.62-1.16-5.18-2.12-1.56-.96-2.85-2.19-3.88-3.7-1.03-1.51-1.62-3.32-1.76-5.43h10.14c.48,1.92,1.41,3.25,2.8,3.99,1.39,.74,3,1.12,4.82,1.12,2.88,0,4.97-.86,6.29-2.59s1.95-3.91,1.91-6.54v-4.89h-.14c-1.1,1.97-2.67,3.42-4.71,4.35-2.04,.93-4.18,1.4-6.44,1.4-2.78,0-5.18-.49-7.19-1.47-2.01-.98-3.67-2.32-4.96-4.03-1.29-1.7-2.24-3.69-2.84-5.97-.6-2.28-.9-4.68-.9-7.23,0-2.4,.35-4.71,1.04-6.94,.69-2.23,1.71-4.19,3.06-5.9,1.34-1.7,3.01-3.06,5-4.06s4.28-1.51,6.87-1.51c2.44,0,4.59,.46,6.43,1.37,1.84,.91,3.39,2.44,4.64,4.6h.14v-4.96h9.71v34.8c0,1.49-.2,3.19-.61,5.11Zm-13.98-12.37c1.1-.58,2.01-1.34,2.73-2.3,.72-.96,1.26-2.05,1.62-3.27,.36-1.22,.54-2.5,.54-3.85,0-1.53-.14-2.98-.43-4.35-.29-1.37-.77-2.58-1.44-3.63-.67-1.05-1.56-1.89-2.66-2.52-1.1-.62-2.49-.93-4.17-.93-1.44,0-2.67,.29-3.7,.86-1.03,.58-1.89,1.35-2.59,2.34-.7,.98-1.2,2.11-1.51,3.38-.31,1.27-.47,2.6-.47,3.99s.13,2.67,.4,3.99c.26,1.32,.72,2.5,1.37,3.56,.65,1.05,1.5,1.92,2.55,2.59,1.05,.67,2.37,1.01,3.96,1.01,1.44,0,2.71-.29,3.81-.86Z"/><path class="cls-1" d="M1003.7,76.23v19.34h.22c1.29-2.16,2.95-3.73,4.96-4.71,2.01-.98,3.98-1.47,5.9-1.47,2.73,0,4.97,.37,6.72,1.11,1.75,.74,3.13,1.77,4.13,3.09,1.01,1.32,1.71,2.92,2.12,4.82,.41,1.89,.61,3.99,.61,6.29v22.86h-10.21v-21c0-3.07-.48-5.36-1.44-6.87-.96-1.51-2.66-2.27-5.11-2.27-2.78,0-4.79,.83-6.04,2.48-1.25,1.65-1.87,4.38-1.87,8.16v19.49h-10.21v-51.34h10.21Z"/><path class="cls-1" d="M1045.83,90.4v4.75h.14c1.25-2.01,2.83-3.47,4.75-4.39,1.92-.91,4.03-1.37,6.33-1.37,2.92,0,5.44,.55,7.55,1.65,2.11,1.1,3.86,2.57,5.25,4.39,1.39,1.82,2.42,3.94,3.09,6.36,.67,2.42,1.01,4.95,1.01,7.58,0,2.49-.34,4.89-1.01,7.19-.67,2.3-1.69,4.34-3.06,6.11-1.37,1.77-3.07,3.19-5.11,4.24s-4.42,1.58-7.15,1.58c-2.3,0-4.42-.47-6.36-1.4-1.94-.93-3.54-2.31-4.78-4.13h-.14v17.62h-10.21v-50.19h9.71Zm13.27,29.48c1.13-.67,2.04-1.55,2.73-2.62,.69-1.08,1.19-2.34,1.47-3.78,.29-1.44,.43-2.9,.43-4.39s-.16-2.95-.47-4.39c-.31-1.44-.83-2.72-1.55-3.85-.72-1.13-1.64-2.04-2.77-2.73-1.13-.69-2.51-1.04-4.13-1.04s-3.08,.35-4.21,1.04c-1.13,.7-2.04,1.59-2.73,2.7-.7,1.1-1.19,2.37-1.47,3.81-.29,1.44-.43,2.92-.43,4.46s.16,2.95,.47,4.39c.31,1.44,.81,2.7,1.51,3.78,.69,1.08,1.62,1.95,2.77,2.62,1.15,.67,2.54,1.01,4.17,1.01s3.08-.33,4.21-1.01Z"/><path class="cls-1" d="M1105.22,127.57v-5.18h-.22c-1.29,2.16-2.97,3.71-5.03,4.67-2.06,.96-4.17,1.44-6.33,1.44-2.73,0-4.97-.36-6.72-1.08-1.75-.72-3.13-1.74-4.13-3.06-1.01-1.32-1.71-2.92-2.12-4.82s-.61-3.99-.61-6.29v-22.86h10.21v21c0,3.07,.48,5.36,1.44,6.87,.96,1.51,2.66,2.27,5.11,2.27,2.78,0,4.79-.83,6.04-2.48,1.25-1.65,1.87-4.37,1.87-8.16v-19.49h10.21v37.17h-9.71Z"/><path class="cls-1" d="M1143.11,90.4v6.83h-7.48v18.41c0,1.73,.29,2.88,.86,3.45s1.73,.86,3.45,.86c.58,0,1.13-.02,1.65-.07,.53-.05,1.03-.12,1.51-.22v7.91c-.86,.14-1.82,.24-2.88,.29-1.06,.05-2.09,.07-3.09,.07-1.58,0-3.08-.11-4.49-.32-1.41-.22-2.66-.63-3.74-1.26-1.08-.62-1.93-1.51-2.55-2.66-.62-1.15-.94-2.66-.94-4.53v-21.93h-6.18v-6.83h6.18v-11.14h10.21v11.14h7.48Z"/></g><g class="cls-3"><path d="M761.98,12.7c-.98-1.56-2.18-2.86-3.6-3.92-1.41-1.05-2.97-1.86-4.67-2.41-1.7-.55-3.49-.83-5.36-.83-3.4,0-6.33,.65-8.77,1.94-2.44,1.29-4.45,3.01-6,5.14-1.56,2.13-2.71,4.54-3.45,7.23-.74,2.69-1.11,5.44-1.11,8.27s.37,5.53,1.11,8.23c.74,2.71,1.89,5.13,3.45,7.26,1.56,2.13,3.56,3.85,6,5.14,2.45,1.29,5.37,1.94,8.77,1.94,2.4,0,4.55-.43,6.47-1.29,1.92-.86,3.57-2.04,4.96-3.52,1.39-1.49,2.52-3.22,3.38-5.21,.86-1.99,1.41-4.13,1.65-6.44h4.89c-.34,3.16-1.08,6.02-2.23,8.56-1.15,2.54-2.64,4.7-4.46,6.47-1.82,1.77-3.97,3.14-6.43,4.1-2.47,.96-5.21,1.44-8.23,1.44-4.03,0-7.56-.73-10.61-2.19s-5.57-3.42-7.58-5.86c-2.01-2.45-3.52-5.27-4.53-8.48-1.01-3.21-1.51-6.59-1.51-10.14s.5-6.93,1.51-10.14c1.01-3.21,2.52-6.05,4.53-8.52,2.01-2.47,4.54-4.43,7.58-5.9s6.58-2.19,10.61-2.19c2.44,0,4.83,.36,7.15,1.08,2.32,.72,4.43,1.79,6.33,3.2,1.89,1.41,3.47,3.15,4.75,5.21,1.27,2.06,2.07,4.43,2.41,7.12h-4.89c-.43-1.96-1.14-3.73-2.12-5.29Z"/><path d="M779.67,41.53c.45,1.75,1.19,3.32,2.19,4.71,1.01,1.39,2.28,2.54,3.81,3.45,1.53,.91,3.38,1.37,5.54,1.37,3.31,0,5.9-.86,7.77-2.59s3.16-4.03,3.88-6.9h4.53c-.96,4.22-2.72,7.48-5.28,9.78-2.57,2.3-6.2,3.45-10.89,3.45-2.92,0-5.45-.52-7.58-1.55-2.13-1.03-3.87-2.45-5.21-4.24-1.34-1.8-2.34-3.88-2.98-6.26-.65-2.37-.97-4.88-.97-7.51,0-2.44,.32-4.84,.97-7.19,.65-2.35,1.64-4.45,2.98-6.29,1.34-1.84,3.08-3.33,5.21-4.46,2.13-1.12,4.66-1.69,7.58-1.69s5.51,.6,7.62,1.8c2.11,1.2,3.82,2.77,5.14,4.71,1.32,1.94,2.26,4.17,2.84,6.69,.57,2.52,.81,5.07,.72,7.66h-28.54c0,1.63,.23,3.32,.68,5.07Zm22.43-13.84c-.55-1.58-1.33-2.98-2.34-4.21-1.01-1.22-2.23-2.2-3.67-2.95s-3.07-1.12-4.89-1.12-3.52,.37-4.96,1.12-2.66,1.73-3.67,2.95c-1.01,1.22-1.81,2.64-2.41,4.24-.6,1.61-.99,3.25-1.19,4.93h24.01c-.05-1.73-.35-3.38-.9-4.96Z"/><path d="M818.1,16.69v6.4h.14c.86-2.25,2.4-4.06,4.6-5.43,2.2-1.37,4.62-2.05,7.26-2.05s4.76,.34,6.51,1.01c1.75,.67,3.15,1.62,4.21,2.84s1.8,2.72,2.23,4.49c.43,1.77,.65,3.76,.65,5.97v23.87h-4.53V30.64c0-1.58-.14-3.06-.43-4.42-.29-1.37-.79-2.55-1.51-3.56-.72-1.01-1.69-1.8-2.91-2.37-1.22-.58-2.75-.86-4.57-.86s-3.44,.32-4.85,.97c-1.41,.65-2.61,1.54-3.59,2.66-.98,1.13-1.75,2.47-2.3,4.03-.55,1.56-.85,3.25-.9,5.07v21.64h-4.53V16.69h4.53Z"/><path d="M866.99,16.69v3.81h-7.55v25.02c0,1.49,.2,2.65,.61,3.49,.41,.84,1.43,1.31,3.06,1.4,1.29,0,2.59-.07,3.88-.22v3.81c-.67,0-1.34,.02-2.01,.07-.67,.05-1.34,.07-2.01,.07-3.02,0-5.13-.59-6.33-1.76-1.2-1.17-1.77-3.34-1.73-6.51V20.5h-6.47v-3.81h6.47V5.55h4.53v11.14h7.55Z"/><path d="M876.88,41.53c.45,1.75,1.19,3.32,2.19,4.71,1.01,1.39,2.28,2.54,3.81,3.45,1.53,.91,3.38,1.37,5.54,1.37,3.31,0,5.9-.86,7.77-2.59s3.16-4.03,3.88-6.9h4.53c-.96,4.22-2.72,7.48-5.28,9.78-2.57,2.3-6.2,3.45-10.89,3.45-2.92,0-5.45-.52-7.58-1.55-2.13-1.03-3.87-2.45-5.21-4.24-1.34-1.8-2.34-3.88-2.98-6.26-.65-2.37-.97-4.88-.97-7.51,0-2.44,.32-4.84,.97-7.19,.65-2.35,1.64-4.45,2.98-6.29,1.34-1.84,3.08-3.33,5.21-4.46,2.13-1.12,4.66-1.69,7.58-1.69s5.51,.6,7.62,1.8c2.11,1.2,3.82,2.77,5.14,4.71,1.32,1.94,2.26,4.17,2.84,6.69,.57,2.52,.81,5.07,.72,7.66h-28.54c0,1.63,.23,3.32,.68,5.07Zm22.43-13.84c-.55-1.58-1.33-2.98-2.34-4.21-1.01-1.22-2.23-2.2-3.67-2.95s-3.07-1.12-4.89-1.12-3.52,.37-4.96,1.12-2.66,1.73-3.67,2.95c-1.01,1.22-1.81,2.64-2.41,4.24-.6,1.61-.99,3.25-1.19,4.93h24.01c-.05-1.73-.35-3.38-.9-4.96Z"/><path d="M915.02,16.69v8.7h.14c1.15-3.02,2.94-5.34,5.36-6.97s5.31-2.37,8.66-2.23v4.53c-2.06-.1-3.93,.18-5.61,.83-1.68,.65-3.13,1.57-4.35,2.77-1.22,1.2-2.17,2.62-2.84,4.28-.67,1.65-1.01,3.46-1.01,5.43v19.77h-4.53V16.69h4.17Z"/><path d="M986.92,2.46V6.63h-27.68V25.18h24.59v4.17h-24.59v24.45h-4.89V2.46h32.57Z"/><path d="M1015.29,17.2c2.18,1.05,4.01,2.47,5.5,4.24,1.48,1.77,2.61,3.85,3.38,6.22,.77,2.37,1.15,4.9,1.15,7.58s-.38,5.21-1.15,7.59c-.77,2.37-1.89,4.45-3.38,6.22-1.49,1.77-3.32,3.18-5.5,4.21-2.18,1.03-4.69,1.55-7.51,1.55s-5.33-.52-7.51-1.55c-2.18-1.03-4.02-2.43-5.5-4.21-1.49-1.77-2.61-3.85-3.38-6.22-.77-2.37-1.15-4.9-1.15-7.59s.38-5.21,1.15-7.58c.77-2.37,1.89-4.45,3.38-6.22,1.49-1.77,3.32-3.19,5.5-4.24,2.18-1.05,4.68-1.58,7.51-1.58s5.33,.53,7.51,1.58Zm-13.19,3.59c-1.63,.91-2.98,2.11-4.06,3.6-1.08,1.49-1.89,3.18-2.44,5.07-.55,1.89-.83,3.82-.83,5.79s.27,3.9,.83,5.79c.55,1.89,1.37,3.58,2.44,5.07,1.08,1.49,2.43,2.68,4.06,3.59,1.63,.91,3.52,1.37,5.68,1.37s4.05-.46,5.68-1.37c1.63-.91,2.98-2.11,4.06-3.59,1.08-1.49,1.89-3.17,2.44-5.07,.55-1.89,.83-3.82,.83-5.79s-.28-3.89-.83-5.79c-.55-1.89-1.37-3.58-2.44-5.07-1.08-1.49-2.43-2.68-4.06-3.6-1.63-.91-3.52-1.37-5.68-1.37s-4.05,.46-5.68,1.37Z"/><path d="M1036.24,16.69v8.7h.14c1.15-3.02,2.94-5.34,5.36-6.97,2.42-1.63,5.31-2.37,8.66-2.23v4.53c-2.06-.1-3.93,.18-5.61,.83-1.68,.65-3.13,1.57-4.35,2.77-1.22,1.2-2.17,2.62-2.84,4.28-.67,1.65-1.01,3.46-1.01,5.43v19.77h-4.53V16.69h4.17Z"/><path d="M1080.46,2.46V24.75h30.49V2.46h4.89V53.79h-4.89V28.92h-30.49v24.88h-4.89V2.46h4.89Z"/><path d="M1129.93,2.46v7.26h-4.53V2.46h4.53Zm0,14.24V53.79h-4.53V16.69h4.53Z"/><path d="M1169.08,58.18c-.6,2.2-1.55,4.07-2.84,5.61-1.29,1.53-2.98,2.71-5.07,3.52-2.08,.81-4.64,1.22-7.66,1.22-1.87,0-3.69-.22-5.46-.65-1.77-.43-3.37-1.1-4.78-2.01-1.42-.91-2.59-2.07-3.52-3.49-.94-1.41-1.47-3.1-1.62-5.07h4.53c.24,1.39,.71,2.55,1.4,3.49,.69,.93,1.53,1.69,2.52,2.26s2.07,.99,3.27,1.26,2.42,.4,3.67,.4c4.22,0,7.26-1.2,9.13-3.59,1.87-2.4,2.8-5.85,2.8-10.35v-5.03h-.14c-1.05,2.3-2.6,4.15-4.64,5.54-2.04,1.39-4.42,2.08-7.15,2.08-2.97,0-5.51-.49-7.62-1.47-2.11-.98-3.85-2.34-5.21-4.06s-2.36-3.75-2.98-6.08c-.62-2.32-.94-4.8-.94-7.44s.37-4.95,1.12-7.23c.74-2.28,1.82-4.27,3.24-5.97,1.41-1.7,3.16-3.04,5.25-4.03,2.08-.98,4.47-1.47,7.15-1.47,1.39,0,2.7,.19,3.92,.58,1.22,.38,2.34,.92,3.34,1.62,1.01,.7,1.91,1.5,2.7,2.41,.79,.91,1.4,1.87,1.83,2.88h.14v-6.4h4.53V50.77c0,2.73-.3,5.2-.9,7.41Zm-10.39-9.89c1.49-.84,2.73-1.94,3.74-3.31s1.76-2.94,2.26-4.71c.5-1.77,.76-3.59,.76-5.46s-.22-3.64-.65-5.46c-.43-1.82-1.13-3.47-2.08-4.96-.96-1.49-2.19-2.68-3.7-3.6-1.51-.91-3.34-1.37-5.5-1.37s-4,.44-5.54,1.33c-1.54,.89-2.8,2.05-3.81,3.49-1.01,1.44-1.74,3.08-2.19,4.93-.46,1.85-.68,3.73-.68,5.64s.24,3.69,.72,5.46c.48,1.77,1.22,3.34,2.23,4.71,1.01,1.37,2.28,2.47,3.81,3.31,1.53,.84,3.35,1.26,5.46,1.26,1.96,0,3.69-.42,5.18-1.26Z"/><path d="M1183.06,2.46V23.09h.14c.86-2.25,2.4-4.06,4.6-5.43,2.2-1.37,4.62-2.05,7.26-2.05s4.76,.34,6.51,1.01c1.75,.67,3.15,1.62,4.21,2.84,1.05,1.22,1.8,2.72,2.23,4.49,.43,1.77,.65,3.76,.65,5.97v23.87h-4.53V30.64c0-1.58-.14-3.06-.43-4.42s-.79-2.55-1.51-3.56c-.72-1.01-1.69-1.8-2.91-2.37-1.22-.58-2.75-.86-4.57-.86s-3.44,.32-4.85,.97c-1.41,.65-2.61,1.54-3.6,2.66-.98,1.13-1.75,2.47-2.3,4.03s-.85,3.25-.9,5.07v21.64h-4.53V2.46h4.53Z"/></g><g class="cls-3"><path d="M759.28,163.98c-.67-1.08-1.51-2.02-2.52-2.84-1.01-.81-2.15-1.45-3.42-1.91-1.27-.46-2.6-.68-3.99-.68-2.54,0-4.7,.49-6.47,1.47-1.77,.98-3.21,2.3-4.31,3.95-1.1,1.65-1.91,3.54-2.41,5.64-.5,2.11-.75,4.29-.75,6.54s.25,4.25,.75,6.29c.5,2.04,1.31,3.87,2.41,5.5,1.1,1.63,2.54,2.94,4.31,3.92,1.77,.98,3.93,1.47,6.47,1.47,3.45,0,6.15-1.05,8.09-3.16,1.94-2.11,3.13-4.89,3.56-8.34h10.93c-.29,3.21-1.03,6.11-2.23,8.7-1.2,2.59-2.78,4.79-4.75,6.62-1.97,1.82-4.27,3.21-6.9,4.17-2.64,.96-5.54,1.44-8.7,1.44-3.93,0-7.47-.68-10.61-2.05-3.14-1.37-5.79-3.25-7.95-5.64-2.16-2.4-3.81-5.21-4.96-8.45s-1.73-6.72-1.73-10.46,.58-7.39,1.73-10.68c1.15-3.28,2.8-6.15,4.96-8.59,2.16-2.44,4.8-4.36,7.95-5.75,3.14-1.39,6.67-2.08,10.61-2.08,2.83,0,5.5,.41,8.02,1.22,2.52,.82,4.77,2,6.76,3.56,1.99,1.56,3.63,3.49,4.92,5.79s2.11,4.94,2.44,7.91h-10.93c-.19-1.29-.62-2.48-1.29-3.56Z"/><path d="M778.77,174.98c.91-2.42,2.21-4.48,3.88-6.18,1.68-1.7,3.69-3.02,6.04-3.95,2.35-.93,4.98-1.4,7.91-1.4s5.57,.47,7.95,1.4,4.4,2.25,6.08,3.95c1.68,1.7,2.97,3.76,3.88,6.18,.91,2.42,1.37,5.12,1.37,8.09s-.46,5.66-1.37,8.05c-.91,2.4-2.21,4.45-3.88,6.15-1.68,1.7-3.7,3.01-6.08,3.92s-5.02,1.37-7.95,1.37-5.56-.46-7.91-1.37c-2.35-.91-4.36-2.22-6.04-3.92s-2.97-3.75-3.88-6.15c-.91-2.4-1.37-5.08-1.37-8.05s.46-5.67,1.37-8.09Zm9.28,12.44c.29,1.41,.78,2.68,1.47,3.81,.69,1.13,1.62,2.03,2.77,2.7,1.15,.67,2.59,1.01,4.31,1.01s3.18-.33,4.35-1.01c1.17-.67,2.11-1.57,2.8-2.7,.69-1.13,1.19-2.4,1.47-3.81,.29-1.41,.43-2.86,.43-4.35s-.14-2.95-.43-4.39c-.29-1.44-.78-2.71-1.47-3.81-.7-1.1-1.63-2-2.8-2.7-1.17-.69-2.62-1.04-4.35-1.04s-3.16,.35-4.31,1.04c-1.15,.7-2.07,1.59-2.77,2.7-.7,1.1-1.19,2.37-1.47,3.81-.29,1.44-.43,2.9-.43,4.39s.14,2.94,.43,4.35Z"/><path d="M832.41,164.45v5.03h.14c1.34-1.92,2.96-3.4,4.85-4.46,1.89-1.05,4.06-1.58,6.51-1.58s4.49,.46,6.44,1.37c1.94,.91,3.42,2.52,4.42,4.82,1.1-1.63,2.6-3.07,4.49-4.31,1.89-1.25,4.13-1.87,6.72-1.87,1.96,0,3.79,.24,5.46,.72,1.68,.48,3.12,1.25,4.31,2.3,1.2,1.06,2.13,2.43,2.8,4.13,.67,1.7,1.01,3.75,1.01,6.15v24.88h-10.21v-21.07c0-1.25-.05-2.42-.14-3.52-.1-1.1-.36-2.06-.79-2.88-.43-.81-1.07-1.46-1.91-1.94-.84-.48-1.98-.72-3.42-.72s-2.6,.28-3.49,.83c-.89,.55-1.58,1.27-2.09,2.16-.5,.89-.84,1.89-1.01,3.02-.17,1.13-.25,2.26-.25,3.42v20.71h-10.21v-20.85c0-1.1-.02-2.19-.07-3.27-.05-1.08-.25-2.07-.61-2.98-.36-.91-.96-1.64-1.8-2.19-.84-.55-2.07-.83-3.7-.83-.48,0-1.11,.11-1.91,.32-.79,.21-1.56,.62-2.3,1.22-.74,.6-1.38,1.46-1.91,2.59-.53,1.13-.79,2.6-.79,4.42v21.57h-10.21v-37.17h9.63Z"/><path d="M897.33,164.45v4.75h.14c1.25-2.01,2.83-3.47,4.75-4.39,1.92-.91,4.03-1.37,6.33-1.37,2.92,0,5.44,.55,7.55,1.65,2.11,1.1,3.86,2.57,5.25,4.39,1.39,1.82,2.42,3.94,3.09,6.36,.67,2.42,1.01,4.95,1.01,7.58,0,2.49-.34,4.89-1.01,7.19-.67,2.3-1.69,4.34-3.06,6.11-1.37,1.77-3.07,3.19-5.11,4.24-2.04,1.05-4.42,1.58-7.15,1.58-2.3,0-4.42-.47-6.36-1.4-1.94-.93-3.54-2.31-4.78-4.13h-.14v17.62h-10.21v-50.19h9.71Zm13.27,29.48c1.13-.67,2.04-1.55,2.73-2.62,.7-1.08,1.19-2.34,1.47-3.78,.29-1.44,.43-2.9,.43-4.39s-.16-2.95-.47-4.39c-.31-1.44-.83-2.72-1.55-3.85s-1.64-2.04-2.77-2.73c-1.13-.69-2.51-1.04-4.13-1.04s-3.08,.35-4.21,1.04c-1.13,.7-2.04,1.59-2.73,2.7-.7,1.1-1.19,2.37-1.47,3.81-.29,1.44-.43,2.92-.43,4.46s.15,2.95,.47,4.39c.31,1.44,.81,2.7,1.51,3.78,.7,1.08,1.62,1.95,2.77,2.62,1.15,.67,2.54,1.01,4.17,1.01s3.08-.33,4.21-1.01Z"/><path d="M956.72,201.62v-5.18h-.22c-1.29,2.16-2.97,3.71-5.03,4.67-2.06,.96-4.17,1.44-6.33,1.44-2.73,0-4.97-.36-6.72-1.08-1.75-.72-3.13-1.74-4.13-3.06-1.01-1.32-1.71-2.92-2.12-4.82-.41-1.89-.61-3.99-.61-6.29v-22.86h10.21v21c0,3.07,.48,5.36,1.44,6.87,.96,1.51,2.66,2.27,5.11,2.27,2.78,0,4.79-.83,6.04-2.48,1.25-1.65,1.87-4.37,1.87-8.16v-19.49h10.21v37.17h-9.71Z"/><path d="M994.61,164.45v6.83h-7.48v18.41c0,1.73,.29,2.88,.86,3.45,.58,.58,1.73,.86,3.45,.86,.58,0,1.13-.02,1.65-.07,.53-.05,1.03-.12,1.51-.22v7.91c-.86,.14-1.82,.24-2.88,.29-1.06,.05-2.09,.07-3.09,.07-1.58,0-3.08-.11-4.49-.32-1.41-.22-2.66-.63-3.74-1.26-1.08-.62-1.93-1.51-2.55-2.66-.62-1.15-.94-2.66-.94-4.53v-21.93h-6.18v-6.83h6.18v-11.14h10.21v11.14h7.48Z"/><path d="M999.79,158.7v-8.41h10.21v8.41h-10.21Zm10.21,5.75v37.17h-10.21v-37.17h10.21Z"/><path d="M1027.76,164.45v5.18h.22c1.29-2.16,2.97-3.73,5.03-4.71,2.06-.98,4.17-1.47,6.33-1.47,2.73,0,4.97,.37,6.72,1.11,1.75,.74,3.13,1.77,4.13,3.09,1.01,1.32,1.71,2.92,2.12,4.82,.41,1.89,.61,3.99,.61,6.29v22.86h-10.21v-21c0-3.07-.48-5.36-1.44-6.87-.96-1.51-2.66-2.27-5.1-2.27-2.78,0-4.79,.83-6.04,2.48-1.25,1.65-1.87,4.38-1.87,8.16v19.49h-10.21v-37.17h9.71Z"/><path d="M1095.81,204.35c-.41,1.92-1.28,3.7-2.62,5.36-1.34,1.65-3.28,3.06-5.82,4.21-2.54,1.15-5.94,1.73-10.21,1.73-1.82,0-3.68-.23-5.57-.68-1.89-.46-3.62-1.16-5.18-2.12-1.56-.96-2.85-2.19-3.88-3.7-1.03-1.51-1.62-3.32-1.76-5.43h10.14c.48,1.92,1.41,3.25,2.8,3.99,1.39,.74,3,1.12,4.82,1.12,2.88,0,4.97-.86,6.29-2.59,1.32-1.73,1.95-3.91,1.91-6.54v-4.89h-.14c-1.1,1.97-2.67,3.42-4.71,4.35s-4.18,1.4-6.43,1.4c-2.78,0-5.18-.49-7.19-1.47-2.01-.98-3.67-2.32-4.96-4.03-1.29-1.7-2.24-3.69-2.84-5.97-.6-2.28-.9-4.68-.9-7.23,0-2.4,.35-4.71,1.04-6.94,.69-2.23,1.71-4.19,3.06-5.9,1.34-1.7,3.01-3.06,5-4.06s4.28-1.51,6.87-1.51c2.45,0,4.59,.46,6.44,1.37,1.84,.91,3.39,2.44,4.64,4.6h.14v-4.96h9.71v34.8c0,1.49-.21,3.19-.61,5.11Zm-13.98-12.37c1.1-.58,2.01-1.34,2.73-2.3,.72-.96,1.26-2.05,1.62-3.27s.54-2.5,.54-3.85c0-1.53-.14-2.98-.43-4.35-.29-1.37-.77-2.58-1.44-3.63-.67-1.05-1.56-1.89-2.66-2.52-1.1-.62-2.49-.93-4.17-.93-1.44,0-2.67,.29-3.7,.86-1.03,.58-1.89,1.35-2.59,2.34-.7,.98-1.2,2.11-1.51,3.38-.31,1.27-.47,2.6-.47,3.99s.13,2.67,.4,3.99c.26,1.32,.72,2.5,1.37,3.56,.65,1.05,1.5,1.92,2.55,2.59,1.05,.67,2.37,1.01,3.96,1.01,1.44,0,2.71-.29,3.81-.86Z"/></g><polygon points="341.5 85.7 257.7 85.7 257.7 .1 208.1 .1 208.1 215.4 257.7 215.4 257.7 129.8 341.5 129.8 341.5 215.4 391.1 215.4 391.1 45.6 341.5 45.6 341.5 85.7"/><path class="cls-2" d="M656.5,74.1c-3-20.5-23.2-36-46.5-36-42,0-57.8,34.6-57.8,70.6s15.8,68.8,57.8,68.8c28.6,0,44.7-19,48.2-46.1h45.3c-4.8,51.3-41.4,84.1-93.5,84.1-65.8,0-104.5-47.5-104.5-106.9S544.2,0,610,0c46.7,0,86,26.5,91.7,74l-45.2,.1Z"/><polygon points="605.5 .1 546.1 .1 558.5 19.2 605.5 .1"/><polyline class="cls-1" points="341.5 .1 341.5 45.6 426.3 45.6 426.3 215.4 478.3 215.4 478.3 45.7 563.5 45.7 563.5 .1"/><path class="cls-2" d="M151.1,74.3c-3-20.4-23.2-36-46.4-36-41.9,.1-57.7,34.5-57.7,70.5s15.8,68.8,57.7,68.8c28.5,0,44.6-19,48.2-46h45.2c-4.8,51.2-41.3,84-93.4,84C39,215.6,.3,168.1,.3,108.8S39,.4,104.7,.4c46.7,0,85.9,26.5,91.6,73.9h-45.2Z"/></svg>