<svg id="Layer_1" data-name="Layer 1" xmlns="http://www.w3.org/2000/svg" viewBox="0 0 1283.85 380.05"><defs><style>.cls-1{fill:#cd1542;}.cls-2{stroke:#000;stroke-width:0.4px;}.cls-3{fill:#cd1642;}</style></defs><path class="cls-1" d="M322,364.47a17,17,0,0,0,.3,3.33,5.81,5.81,0,0,0,1.11,2.52,5.55,5.55,0,0,0,2.2,1.61,8.81,8.81,0,0,0,3.45.58,6.87,6.87,0,0,0,4.42-1.57,5.86,5.86,0,0,0,2-4.86,8.66,8.66,0,0,0-.48-3,6,6,0,0,0-1.6-2.3,11.13,11.13,0,0,0-2.93-1.87,44.72,44.72,0,0,0-4.5-1.72,38.69,38.69,0,0,1-6.17-2.56,16.48,16.48,0,0,1-4.34-3.25,11.72,11.72,0,0,1-2.57-4.32,18,18,0,0,1-.81-5.67q0-7.75,4.38-11.56t12-3.8a26.14,26.14,0,0,1,6.57.77,13.88,13.88,0,0,1,5.2,2.48,11.74,11.74,0,0,1,3.42,4.39,15.22,15.22,0,0,1,1.23,6.4v1.47H334.6a10.41,10.41,0,0,0-1.33-5.75,5,5,0,0,0-4.46-2,7.54,7.54,0,0,0-3,.51,5.07,5.07,0,0,0-1.9,1.36,4.54,4.54,0,0,0-1,1.94,9.38,9.38,0,0,0-.26,2.26,7.38,7.38,0,0,0,1,4.06q1,1.65,4.45,3l8.25,3.51a25.67,25.67,0,0,1,5,2.74,13.61,13.61,0,0,1,3.08,3.08,10.08,10.08,0,0,1,1.6,3.62,19.78,19.78,0,0,1,.44,4.39q0,8.26-4.86,12t-13.56,3.77q-9.06,0-13-3.88t-3.9-11.12v-2.12H322Z"/><path class="cls-1" d="M364.62,350.64a16.94,16.94,0,0,1,2.67-6.47,11.81,11.81,0,0,1,4.87-3.95,17.87,17.87,0,0,1,7.39-1.36,19.08,19.08,0,0,1,7.65,1.21A10.71,10.71,0,0,1,392,344a17.42,17.42,0,0,1,2.53,6.51,49.25,49.25,0,0,1,.74,9.07,43.94,43.94,0,0,1-.81,8.93,17,17,0,0,1-2.68,6.47,11,11,0,0,1-4.87,3.85,19.54,19.54,0,0,1-7.39,1.24,19.9,19.9,0,0,1-7.65-1.14,10.3,10.3,0,0,1-4.83-3.8,17,17,0,0,1-2.53-6.51,49.37,49.37,0,0,1-.74-9A43.23,43.23,0,0,1,364.62,350.64Zm9.58,14.49a19,19,0,0,0,.71,4.38,6.26,6.26,0,0,0,1.67,2.86,4.22,4.22,0,0,0,3,1,4.33,4.33,0,0,0,4.31-3.22q1.18-3.21,1.19-10.61T383.86,349a4.33,4.33,0,0,0-4.31-3.22,4.22,4.22,0,0,0-3,1,6.32,6.32,0,0,0-1.67,2.86,19.08,19.08,0,0,0-.71,4.39c-.1,1.7-.15,3.56-.15,5.55S374.1,363.42,374.2,365.13Z"/><path class="cls-1" d="M411.35,346.76v-6.87h5.2v-4.47a12,12,0,0,1,.74-4.46,7.11,7.11,0,0,1,2.12-2.92,8.6,8.6,0,0,1,3.38-1.58,19.82,19.82,0,0,1,4.46-.47c1.83,0,3.67.07,5.5.22v7.17a5.54,5.54,0,0,0-1-.08h-1a4.91,4.91,0,0,0-3,.73,3,3,0,0,0-.9,2.42v3.44h5.95v6.87H426.8v32.48H416.55V346.76Z"/><path class="cls-1" d="M462.32,328.62v11.27h5.94v6.87h-5.94v21.29a5.93,5.93,0,0,0,.7,3.33q.71,1,2.94,1c.39,0,.79,0,1.19,0s.76-.06,1.11-.11v7c-1.14,0-2.24,0-3.3.11s-2.2.11-3.39.11a23.94,23.94,0,0,1-4.86-.4,5,5,0,0,1-2.9-1.61,6.74,6.74,0,0,1-1.37-3.18,27.33,27.33,0,0,1-.38-5V346.76h-5.2v-6.87h5.2V328.62Z"/><path class="cls-1" d="M492.7,339.89l4.68,27.94h.15l5-27.94h11.15l5.27,27.94h.15l4.83-27.94h9.8l-8.61,39.35H513.43l-5.27-27.94H508l-5,27.94H491.14l-8.69-39.35Z"/><path class="cls-1" d="M551.1,351a13.22,13.22,0,0,1,1.11-5.75,10.2,10.2,0,0,1,3-3.73,12.19,12.19,0,0,1,4.46-2,23.36,23.36,0,0,1,5.46-.62,25.88,25.88,0,0,1,7.43.88,10.31,10.31,0,0,1,4.39,2.49,8.25,8.25,0,0,1,2.11,3.84,20.13,20.13,0,0,1,.56,4.86v20.71a27.76,27.76,0,0,0,.26,4.31,14.86,14.86,0,0,0,1,3.29h-9.8a7.91,7.91,0,0,1-.78-2c-.18-.7-.34-1.4-.49-2.08h-.15a8.59,8.59,0,0,1-4.12,4,16.85,16.85,0,0,1-6,.92,10.2,10.2,0,0,1-4.54-.92,7.62,7.62,0,0,1-3-2.52,11.13,11.13,0,0,1-1.63-3.62,15.73,15.73,0,0,1-.52-4,16.9,16.9,0,0,1,.59-4.79,9.22,9.22,0,0,1,1.82-3.44,9.91,9.91,0,0,1,3.12-2.37,24.6,24.6,0,0,1,4.57-1.69l5.8-1.53a6.23,6.23,0,0,0,3.19-1.61,4.44,4.44,0,0,0,.89-3,5.39,5.39,0,0,0-1.07-3.55,4.6,4.6,0,0,0-3.68-1.28,4.42,4.42,0,0,0-3.57,1.39,5.57,5.57,0,0,0-1.19,3.73V352H551.1Zm16.49,9.84a15.91,15.91,0,0,1-2.15.69,8,8,0,0,0-4.46,2.19,6.16,6.16,0,0,0-1.34,4.17,7.81,7.81,0,0,0,.9,3.88,3.1,3.1,0,0,0,3,1.61,7.55,7.55,0,0,0,2.15-.33,6,6,0,0,0,2.05-1.06,5.78,5.78,0,0,0,1.52-1.9,6.16,6.16,0,0,0,.59-2.78v-7.76A9.06,9.06,0,0,1,567.59,360.85Z"/><path class="cls-1" d="M610.24,339.89v5.26h.15a14.38,14.38,0,0,1,3.79-4.57,8.63,8.63,0,0,1,5.42-1.72c.3,0,.61,0,.93,0a9.1,9.1,0,0,1,.93.11v9.66c-.55-.05-1.08-.09-1.6-.11s-1.05,0-1.6,0a9.83,9.83,0,0,0-2.67.37,7.09,7.09,0,0,0-2.45,1.2,6.08,6.08,0,0,0-1.79,2.2,7.52,7.52,0,0,0-.67,3.32v23.63H600.43V339.89Z"/><path class="cls-1" d="M647.46,364.25a22.2,22.2,0,0,0,.26,3.4,10.64,10.64,0,0,0,.86,2.92,5.35,5.35,0,0,0,1.56,2.05,3.63,3.63,0,0,0,2.37.77,4.18,4.18,0,0,0,3.79-1.83,13.41,13.41,0,0,0,1.64-5.56h9.21q-.3,6.88-3.72,10.46t-10.77,3.59q-5.56,0-8.69-1.83a11.44,11.44,0,0,1-4.61-4.83,19,19,0,0,1-1.82-6.73c-.22-2.49-.33-5-.33-7.46a49.46,49.46,0,0,1,.56-7.61,18.18,18.18,0,0,1,2.22-6.51,12.07,12.07,0,0,1,4.8-4.53,17.45,17.45,0,0,1,8.32-1.69,16.42,16.42,0,0,1,7.32,1.43,11,11,0,0,1,4.49,4,16.73,16.73,0,0,1,2.23,6.29,52.94,52.94,0,0,1,.59,8.23v2.27H647.46Zm10.18-13.13a10.13,10.13,0,0,0-.78-2.93,4.15,4.15,0,0,0-1.56-1.83,4.83,4.83,0,0,0-2.56-.62,4.45,4.45,0,0,0-2.57.69,5,5,0,0,0-1.59,1.83,8.78,8.78,0,0,0-.86,2.53,15.3,15.3,0,0,0-.26,2.78v1.53h10.48C657.89,353.59,657.79,352.26,657.64,351.12Z"/><path class="cls-1" d="M726.88,364.47a17,17,0,0,0,.3,3.33,5.81,5.81,0,0,0,1.11,2.52,5.55,5.55,0,0,0,2.2,1.61,8.81,8.81,0,0,0,3.45.58,6.89,6.89,0,0,0,4.42-1.57,5.86,5.86,0,0,0,2-4.86,8.66,8.66,0,0,0-.48-3,6.11,6.11,0,0,0-1.6-2.3,11,11,0,0,0-2.94-1.87,43.53,43.53,0,0,0-4.49-1.72,38.69,38.69,0,0,1-6.17-2.56,16.48,16.48,0,0,1-4.34-3.25,11.72,11.72,0,0,1-2.57-4.32,18,18,0,0,1-.81-5.67q0-7.75,4.38-11.56t12-3.8a26.14,26.14,0,0,1,6.57.77,13.88,13.88,0,0,1,5.2,2.48,11.74,11.74,0,0,1,3.42,4.39,15.22,15.22,0,0,1,1.23,6.4v1.47H739.51a10.32,10.32,0,0,0-1.34-5.75,4.94,4.94,0,0,0-4.45-2,7.54,7.54,0,0,0-3,.51,5.07,5.07,0,0,0-1.9,1.36,4.68,4.68,0,0,0-1,1.94,9.91,9.91,0,0,0-.26,2.26,7.38,7.38,0,0,0,1,4.06q1,1.65,4.45,3l8.25,3.51a25.67,25.67,0,0,1,5,2.74,13.82,13.82,0,0,1,3.08,3.08,10.08,10.08,0,0,1,1.6,3.62,19.78,19.78,0,0,1,.44,4.39q0,8.26-4.86,12t-13.56,3.77q-9.07,0-13-3.88t-3.9-11.12v-2.12h10.7Z"/><path class="cls-1" d="M790.41,374.64a9.67,9.67,0,0,1-4.24,4.17,13.71,13.71,0,0,1-5.94,1.24c-3.27,0-5.79-.84-7.54-2.53s-2.64-4.49-2.64-8.44V339.89H780.3V367c0,2.05.35,3.47,1,4.28a4.2,4.2,0,0,0,3.34,1.2q5.43,0,5.43-6.51V339.89h10.25v39.35h-9.81v-4.6Z"/><path class="cls-1" d="M831.34,326.43v8.63H821.09v-8.63Zm0,13.46v39.35H821.09V339.89Z"/><path class="cls-1" d="M864.55,328.62v11.27h6v6.87h-6v21.29a5.92,5.92,0,0,0,.71,3.33c.47.66,1.45,1,2.93,1,.4,0,.8,0,1.19,0s.77-.06,1.12-.11v7c-1.14,0-2.25,0-3.31.11s-2.19.11-3.38.11a24.12,24.12,0,0,1-4.87-.4,4.9,4.9,0,0,1-2.89-1.61,6.84,6.84,0,0,1-1.38-3.18,27.45,27.45,0,0,1-.37-5V346.76h-5.2v-6.87h5.2V328.62Z"/><path class="cls-1" d="M896.35,364.25a22.2,22.2,0,0,0,.26,3.4,11,11,0,0,0,.85,2.92,5.47,5.47,0,0,0,1.57,2.05,3.63,3.63,0,0,0,2.37.77,4.18,4.18,0,0,0,3.79-1.83,13.41,13.41,0,0,0,1.64-5.56H916q-.3,6.88-3.72,10.46t-10.77,3.59q-5.56,0-8.69-1.83a11.44,11.44,0,0,1-4.61-4.83,19,19,0,0,1-1.82-6.73c-.22-2.49-.33-5-.33-7.46a49.46,49.46,0,0,1,.56-7.61,18.18,18.18,0,0,1,2.22-6.51,12.07,12.07,0,0,1,4.8-4.53,17.45,17.45,0,0,1,8.32-1.69,16.42,16.42,0,0,1,7.32,1.43,11,11,0,0,1,4.49,4A16.73,16.73,0,0,1,916,350.6a52.94,52.94,0,0,1,.59,8.23v2.27H896.35Zm10.18-13.13a10.13,10.13,0,0,0-.78-2.93,4.15,4.15,0,0,0-1.56-1.83,4.83,4.83,0,0,0-2.56-.62,4.45,4.45,0,0,0-2.57.69,5.15,5.15,0,0,0-1.6,1.83,9.08,9.08,0,0,0-.85,2.53,15.3,15.3,0,0,0-.26,2.78v1.53h10.48C906.78,353.59,906.68,352.26,906.53,351.12Z"/><polygon points="133.38 154.96 49.57 154.96 49.57 69.37 0 69.37 0 284.67 49.57 284.67 49.57 199.09 133.38 199.09 133.38 284.67 182.95 284.67 182.95 114.83 133.38 114.83 133.38 154.96"/><path class="cls-2" d="M448.36,143.4c-3-20.46-23.23-36-46.45-36-42,0-57.76,34.57-57.76,70.57,0,34.28,15.78,68.84,57.76,68.84,28.58,0,44.66-19,48.23-46.09H495.4C490.63,252,454,284.82,401.91,284.82c-65.8,0-104.5-47.54-104.5-106.86,0-61.07,38.7-108.59,104.5-108.59,46.74,0,86,26.5,91.7,74Z"/><path d="M660.1,205.27c0,44.29-25.73,81.7-73,81.7s-73-37.41-73-81.7,25.73-81.68,73-81.68S660.1,161,660.1,205.27Zm-127.18,0c0,32.91,18,65.84,54.17,65.84s54.17-32.93,54.17-65.84-18-65.82-54.17-65.82S532.92,172.36,532.92,205.27Z"/><path d="M676,128.07h18.85v26.64h.6c6.89-18.56,27.54-31.12,49.38-31.12,43.39,0,56.56,22.73,56.56,59.54v99.35H782.51V186.13c0-26.65-8.68-46.69-39.2-46.69-29.93,0-47.89,22.74-48.49,53v90.07H676Z"/><path d="M1150.52,128.07h17.35v36.21h.6c9.58-24.83,30.53-39.5,58.36-38.31v18.85c-34.12-1.8-57.47,23.34-57.47,55.37v82.28h-18.84V128.07Z"/><polygon points="397.36 69.37 337.95 69.37 350.42 88.47 397.36 69.37"/><polyline class="cls-3" points="133.37 69.37 133.37 114.81 218.14 114.81 218.14 284.67 270.17 284.67 270.17 114.97 355.38 114.97 355.38 69.37"/><path class="cls-3" d="M1258.05,5.41c-54.11,15.4-135.26,34.4-197.66,85.87C995.91,34.82,892.29,10.34,867.81,5.35c-21.74-4.44-57-9.65-26.37,1.44,74.67,23.82,193.68,124.05,214.26,155.65,2.7,4.15,5.35,4.15,8.56.13C1089,131.49,1154.54,73.28,1275.38,6.5,1288.3-.2,1289.25-3.48,1258.05,5.41Z"/><path d="M1104.92,141.56,1092.14,154c12.44,12.67,18.69,31.95,18.69,51.27,0,32.91-17.95,65.84-54.17,65.84s-54.17-32.93-54.17-65.84c0-21.74,7.89-43.4,23.63-55.66l-13-12.05c-19.27,14.82-29.44,39.9-29.44,67.72,0,44.29,25.75,81.7,73,81.7s73-37.41,73-81.7C1129.68,179.81,1121.13,156.67,1104.92,141.56Z"/><path d="M942,79.61v77.78h-.6c-8.08-22.15-30.53-33.81-53.57-33.81-47,0-69.42,38-69.42,81.68S840.86,287,887.83,287c22.44,0,47-13.76,55.06-33.81h.6v29.33h17.36V93.62Zm-54.16,191.5c-35.91,0-50.57-33.82-50.57-65.84s14.66-65.82,50.57-65.82c40.1,0,54.16,33.81,54.16,65.82S927.94,271.11,887.84,271.11Z"/></svg>