<svg id="layer" xmlns="http://www.w3.org/2000/svg" viewBox="0 0 203.9 70.3"><defs><style>.cls-1{fill:#b90014;}</style></defs><path d="M168.1.9c-16.6,0-26.4,35.5-26.4,35.5-6.5,18.7-10.2,23.7-10.2,23.7-5.2,7.9-12,9.6-16.8,9.7-6,.1-10.1-4.6-10.1-4.6,14.4,8.8,22.1-11.7,23.9-16s11-29.2,11-29.2S147.2.7,163.6.5A28.89,28.89,0,0,1,168.1.9Z"/><path class="cls-1" d="M35.8,69.2c16.5,0,26.4-35.5,26.4-35.5,5.6-16.2,9.2-22,10-23.3A21.42,21.42,0,0,1,91.3,1.2a13.61,13.61,0,0,1,8.2,3.5C84.3-3.4,77.2,16.5,75.4,20.9s-11,29.2-11,29.2-7.7,19.3-24,19.5A29.76,29.76,0,0,1,35.8,69.2Z"/><path d="M203.9.9c-16.6,0-26.4,35.5-26.4,35.5-6.5,18.7-10.2,23.7-10.2,23.7-5.2,7.9-12,9.6-16.8,9.7-6,.1-10.1-4.6-10.1-4.6,14.4,8.8,22.1-11.7,23.9-16s11-29.2,11-29.2S183,.7,199.3.5A29,29,0,0,1,203.9.9Z"/><path class="cls-1" d="M91.4,1.4a21.49,21.49,0,0,0-19.2,9.3S77.4,0,92.2,0c0,0,14,.3,21.2,10.9,0,0,4.1,4.4,10.7,23.3,0,0,10.6,35.1,26.6,35.7a18.85,18.85,0,0,1-4.6.4c-16.4-.2-24.2-19.6-24.2-19.6s-9.3-25-11.1-29.3S101.7,1.6,90.4,1.6"/><path class="cls-1" d="M0,69.2c16.5,0,26.4-35.5,26.4-35.5,5.6-16.2,9.2-22,10-23.3A21.42,21.42,0,0,1,55.5,1.2a13.61,13.61,0,0,1,8.2,3.5C48.5-3.4,41.4,16.5,39.6,20.9s-11,29.2-11,29.2-7.7,19.3-24,19.5A28.18,28.18,0,0,1,0,69.2Z"/><path class="cls-1" d="M55.5,1.4a21.49,21.49,0,0,0-19.2,9.3S41.5,0,56.4,0c0,0,14,.3,21.2,10.9,0,0,4.1,4.4,10.7,23.3,0,0,10.6,35.1,26.6,35.7a18.85,18.85,0,0,1-4.6.4c-16.4-.2-24.2-19.6-24.2-19.6S76.8,25.7,75,21.4,65.9,1.6,54.6,1.6"/></svg>