<?xml version="1.0" encoding="UTF-8" standalone="no"?>
<svg
   xmlns:dc="http://purl.org/dc/elements/1.1/"
   xmlns:cc="http://creativecommons.org/ns#"
   xmlns:rdf="http://www.w3.org/1999/02/22-rdf-syntax-ns#"
   xmlns:svg="http://www.w3.org/2000/svg"
   xmlns="http://www.w3.org/2000/svg"
   xmlns:xlink="http://www.w3.org/1999/xlink"
   xmlns:sodipodi="http://sodipodi.sourceforge.net/DTD/sodipodi-0.dtd"
   xmlns:inkscape="http://www.inkscape.org/namespaces/inkscape"
   width="114.9"
   height="53"
   viewBox="0 0 114.9 53"
   version="1.1"
   id="svg106"
   sodipodi:docname="neos_full.svg"
   inkscape:version="1.0.2 (e86c8708, 2021-01-15)">
  <metadata
     id="metadata110">
    <rdf:RDF>
      <cc:Work
         rdf:about="">
        <dc:format>image/svg+xml</dc:format>
        <dc:type
           rdf:resource="http://purl.org/dc/dcmitype/StillImage" />
        <dc:title></dc:title>
      </cc:Work>
    </rdf:RDF>
  </metadata>
  <sodipodi:namedview
     pagecolor="#ffffff"
     bordercolor="#666666"
     borderopacity="1"
     objecttolerance="10"
     gridtolerance="10"
     guidetolerance="10"
     inkscape:pageopacity="0"
     inkscape:pageshadow="2"
     inkscape:window-width="1440"
     inkscape:window-height="759"
     id="namedview108"
     showgrid="false"
     inkscape:zoom="7.9080261"
     inkscape:cx="63.239516"
     inkscape:cy="26.349969"
     inkscape:window-x="274"
     inkscape:window-y="1105"
     inkscape:window-maximized="0"
     inkscape:current-layer="svg106" />
  <defs
     id="defs96">
    <style
       id="style85">.c-1{stroke:#000;stroke-width:0.2px;fill:url(#l-g-1)}</style>
    <linearGradient
       id="l-g-1"
       x1="0"
       y1="32"
       x2="0"
       y2="10"
       gradientUnits="userSpaceOnUse">
      <stop
         offset="0"
         stop-color="#0df"
         id="stop87" />
      <stop
         offset="0.2"
         stop-color="#0af"
         id="stop89" />
      <stop
         offset="0.7"
         stop-color="#08f"
         id="stop91" />
      <stop
         offset="1"
         stop-color="#08f"
         id="stop93" />
    </linearGradient>
    <linearGradient
       inkscape:collect="always"
       xlink:href="#l-g-1"
       id="linearGradient174"
       gradientUnits="userSpaceOnUse"
       x1="0"
       y1="32"
       x2="0"
       y2="10"
       gradientTransform="translate(0,19.094525)" />
    <linearGradient
       inkscape:collect="always"
       xlink:href="#l-g-1"
       id="linearGradient176"
       gradientUnits="userSpaceOnUse"
       x1="0"
       y1="32"
       x2="0"
       y2="10"
       gradientTransform="translate(0,19.094525)" />
    <linearGradient
       inkscape:collect="always"
       xlink:href="#l-g-1"
       id="linearGradient178"
       gradientUnits="userSpaceOnUse"
       x1="0"
       y1="32"
       x2="0"
       y2="10"
       gradientTransform="translate(0,19.094525)" />
    <linearGradient
       inkscape:collect="always"
       xlink:href="#l-g-1"
       id="linearGradient180"
       gradientUnits="userSpaceOnUse"
       x1="0"
       y1="32"
       x2="0"
       y2="10"
       gradientTransform="translate(0,19.094525)" />
  </defs>
  <path
     class="c-1"
     d="m 56.35,33.294525 v 2.4 h -23.2 a 24.52,24.52 0 0 0 0.2,2.7 12.57,12.57 0 0 0 1.65,5.4 12.25,12.25 0 0 0 8.9,6 24.23,24.23 0 0 0 13.3,-1.6 l 0.9,2.5 a 18.61,18.61 0 0 1 -5.7,1.6 c -3.6,0.5 -7.2,0.8 -10.8,-0.2 -6.1,-1.6 -10.1,-5.4 -11.2,-11.6 -1,-5.5 -0.2,-10.8 3.3,-15.4 a 14.81,14.81 0 0 1 9.85,-5.5 17.26,17.26 0 0 1 7.5,0.5 c 4.6,1.4 7.3,4.7 8.5,9.2 a 22.1,22.1 0 0 1 0.7,4 h -3.9 c 0,-1 -0.1,-2.1 -0.2,-3.1 a 9.28,9.28 0 0 0 -2.3,-4.9 11.36,11.36 0 0 0 -7,-3.4 12,12 0 0 0 -11.85,6 13.76,13.76 0 0 0 -1.7,5.3 h 1.3 z"
     id="path98"
     style="fill:url(#linearGradient178)" />
  <path
     class="c-1"
     d="m 60.65,35.994525 h 3.5 a 23.2,23.2 0 0 0 0.5,3.8 12.56,12.56 0 0 0 5.9,8.6 13.43,13.43 0 0 0 9.6,1.6 12.26,12.26 0 0 0 9.1,-6.8 14.45,14.45 0 0 0 0.75,-12.8 c -1.6,-4.1 -4.5,-7.1 -9,-8 -4.2,-0.9 -8.3,-0.4 -11.8,2.3 a 13,13 0 0 0 -4.5,7.9 c 0,0.2 -0.1,0.4 -0.1,0.6 H 61 a 13.29,13.29 0 0 1 1.8,-5.4 c 0.4,-0.5 0.6,-1.1 1,-1.6 a 15.75,15.75 0 0 1 10.2,-6.4 c 4.4,-0.8 8.7,-0.5 12.6,1.8 a 14.92,14.92 0 0 1 7.6,11 20.45,20.45 0 0 1 -0.1,7.8 14.4,14.4 0 0 1 -4.2,7.6 17.64,17.64 0 0 1 -9.6,4.6 c -4.8,0.7 -9.2,0 -13.2,-2.9 a 16.26,16.26 0 0 1 -3.6,-3.8 c -2.25,-2.9 -2.85,-6.3 -2.85,-9.9 z"
     id="path100"
     style="fill:url(#linearGradient174)" />
  <path
     class="c-1"
     d="m 0.25,20.194525 h 2.9 l 0.2,5.8 a 2.18,2.18 0 0 0 0.5,-0.8 14.57,14.57 0 0 1 8.9,-5.5 14.19,14.19 0 0 1 9.9,1.3 12.93,12.93 0 0 1 3.7,3.3 12.57,12.57 0 0 1 2.4,7.7 c 0.1,6.5 0,13 0,19.6 v 0.4 h -3.6 v -19.4 a 13,13 0 0 0 -1.3,-5.8 8.44,8.44 0 0 0 -7,-4.6 12.38,12.38 0 0 0 -9.85,3.1 10.06,10.06 0 0 0 -3.3,7.5 c 0,6.1 0,12.2 0.1,18.3 v 0.9 H 0.25 Z"
     id="path102"
     style="fill:url(#linearGradient180)" />
  <path
     class="c-1"
     d="m 112.15,23.894525 a 13,13 0 0 0 -6.7,-1.9 8,8 0 0 0 -5,1.2 c -2.3,1.6 -3.3,3.6 -2.4,6.1 a 4.53,4.53 0 0 0 2.3,2.6 60.32,60.32 0 0 0 5.8,2.6 23.38,23.38 0 0 1 5,2.5 8.27,8.27 0 0 1 -1,14.1 14.74,14.74 0 0 1 -5.3,1.6 18.16,18.16 0 0 1 -10.8,-1.8 c -0.2,-0.1 -0.5,-0.3 -0.5,-0.3 l -0.2,-0.1 1.3,-2.6 a 17.18,17.18 0 0 0 5.9,2 c 2.9,0.4 5.7,0.3 8.2,-1.4 a 5.61,5.61 0 0 0 0.6,-8.8 14.8,14.8 0 0 0 -5.3,-2.7 25.48,25.48 0 0 1 -6.8,-3.4 c -4.5,-3.6 -3.3,-9.5 0.8,-12.2 a 14.08,14.08 0 0 1 9,-1.9 13.41,13.41 0 0 1 5.8,1.7 c 0.2,0.1 0.3,0.2 0.5,0.3 z"
     id="path104"
     style="fill:url(#linearGradient176)" />
  <path
     class="cls-1"
     d="M 97.393258,19.149767 C 89.193339,9.3977469 75.293477,3.5666439 60.193627,3.5666439 c -15.09985,0 -29.049713,5.831103 -37.199631,15.5831231 L 22.494001,18.848158 C 29.593931,7.4875579 44.143787,0.4500179 60.193627,0.4500179 c 16.04984,0 30.599696,7.03754 37.699626,18.3981401 z"
     id="path146"
     style="fill:#ffffff;stroke:#000000;stroke-width:0.200535px" />
</svg>
