<svg id="Layer_1" data-name="Layer 1" xmlns="http://www.w3.org/2000/svg" xmlns:xlink="http://www.w3.org/1999/xlink" viewBox="0 0 336.32 223.69"><defs><style>.cls-1{fill:none;}.cls-2{clip-path:url(#clip-path);}.cls-3{fill:#f08231;}.cls-4{fill:#f1a52b;}.cls-5{fill:#fdcb26;}</style><clipPath id="clip-path" transform="translate(-156.8 -107.25)"><rect class="cls-1" x="108.8" y="83.24" width="576" height="328"/></clipPath></defs><g class="cls-2"><path class="cls-3" d="M279.73,286c13.5,0,21.43,9.91,21.43,22.65,0,12.37-7.93,22.28-21.43,22.28S258.3,321,258.3,308.66c0-12.74,7.94-22.65,21.43-22.65m0,37c8.61,0,11.85-7.21,11.85-14.35,0-7.51-3.24-14.72-11.85-14.72s-11.84,7.21-11.84,14.72c0,7.14,3.24,14.35,11.84,14.35" transform="translate(-156.8 -107.25)"/><path class="cls-3" d="M315.3,315.68c0,5.71,4.52,7.93,9.65,7.93,3.36,0,8.48-1,8.48-5.34,0-4.63-6.53-5.41-12.94-7.09s-13-4.15-13-12.2c0-8.76,8.42-13,16.3-13,9.09,0,17.46,3.9,17.46,13.82H332c-.3-5.17-4-6.49-8.61-6.49-3.05,0-6.59,1.26-6.59,4.86,0,3.31,2.08,3.73,13,6.49,3.18.78,12.94,2.76,12.94,12.49,0,7.87-6.29,13.76-18.13,13.76-9.64,0-18.68-4.69-18.56-15.26Z" transform="translate(-156.8 -107.25)"/><path class="cls-3" d="M380.56,325.05a14.81,14.81,0,0,1-12,5.89c-13.5,0-21.43-9.91-21.43-22.28,0-12.74,7.93-22.65,21.43-22.65,8.91,0,17.34,5.41,18.38,15.14h-9.16c-1.1-4.75-4.71-7.21-9.22-7.21-8.61,0-11.85,7.21-11.85,14.72,0,7.14,3.24,14.35,11.85,14.35,6.23,0,9.83-3.3,10.38-9.25h-9.65v-7h18.32v23.19h-6.11Z" transform="translate(-156.8 -107.25)"/><path class="cls-3" d="M325,165.67,156.8,220.44,325,275.21l168.16-54.77ZM184.62,218.55,325,172.84,465.3,218.55,325,264.26Z" transform="translate(-156.8 -107.25)"/><path class="cls-4" d="M325,136.46,156.8,191.23,325,246l168.16-54.77ZM184.62,189.33,325,143.63l140.34,45.7L325,235.05Z" transform="translate(-156.8 -107.25)"/><path class="cls-5" d="M325,107.25,156.8,162,325,216.79,493.12,162ZM184.62,160.13,325,114.42,465.3,160.13,325,205.83Z" transform="translate(-156.8 -107.25)"/></g></svg>