<?xml version="1.0" encoding="utf-8"?>
<!-- Generator: Adobe Illustrator 25.3.1, SVG Export Plug-In . SVG Version: 6.00 Build 0)  -->
<svg version="1.1" id="Layer_1" xmlns="http://www.w3.org/2000/svg" xmlns:xlink="http://www.w3.org/1999/xlink" x="0px" y="0px"
	 viewBox="0 0 511.6 351" style="enable-background:new 0 0 511.6 351;" xml:space="preserve">
<style type="text/css">
	.st0{fill:#FFFFFF;}
</style>
<g id="Background">
	<rect x="-464" y="-223.6" class="st0" width="1000" height="1000"/>
</g>
<g id="Icon">
	<path d="M7.4,246.8c0,32.2,1.1,64.4,0.6,96.7c0,0.3,0.3,0.6,0.7,0.5c0.3,0,0.5-0.2,0.5-0.5c0.7-32,1.1-64.7-1.6-96.7
		C7.6,246.7,7.5,246.7,7.4,246.8C7.4,246.7,7.4,246.8,7.4,246.8L7.4,246.8z"/>
	<path d="M150.3,330.7c14.9-1.9,29.5-3.2,44.6-1.9c15.7,1.3,30.1,5.5,45.2,9.7c0.6,0.2,1.1-0.8,0.4-1.1c-13.4-6.1-29.2-8.8-43.8-10
		c-15.3-1.3-31.5-0.9-46.5,2.8C149.9,330.1,150,330.7,150.3,330.7L150.3,330.7z"/>
	<path d="M163.6,314.8c10.6-1,21.3-1,31.9-0.1c11.3,1.1,22.3,3.6,33.6,5.2c0.6,0.1,0.8-0.8,0.2-0.9c-20.7-4.9-44.6-8.9-65.8-4.8
		c-0.2,0.1-0.2,0.2-0.2,0.4C163.4,314.7,163.5,314.8,163.6,314.8L163.6,314.8z"/>
	<path d="M335.7,323.1c-23.8-1-50.2,2.8-71.6,13.9c-0.6,0.3-0.2,1.3,0.4,1c11.2-4.2,22.1-8.4,34-10.9c12.2-2.5,24.7-3.7,37.2-3.5
		c0.1,0,0.3-0.1,0.3-0.3C336,323.2,335.9,323.1,335.7,323.1L335.7,323.1z"/>
	<path d="M303.1,314.2c-17.8,1.9-36.4,9.2-49,22.3c-0.5,0.6,0.3,1.3,0.8,0.8c14.3-11.9,29.5-20.3,48.2-22.7
		C303.4,314.6,303.4,314.1,303.1,314.2L303.1,314.2z"/>
	<path d="M488.2,292.1c-0.7,6.2-0.2,12.7-0.1,19s0,12.7,0.5,19c0,0.3,0.3,0.5,0.7,0.5c0.3,0,0.5-0.2,0.5-0.5
		c0.3-6.6-0.2-13.3-0.4-20c-0.2-6,0.1-12.2-0.9-18.1C488.5,291.9,488.2,291.9,488.2,292.1L488.2,292.1z"/>
	<path d="M504.2,291.4c-0.3,16-0.4,32-0.5,48c0,0.4,0.4,0.7,0.8,0.7c0.4,0,0.6-0.3,0.7-0.7c-0.1-16-0.2-32-0.5-48
		c0-0.1-0.1-0.2-0.3-0.2C504.2,291.3,504.2,291.4,504.2,291.4z"/>
	<path d="M504,70.1c0.5-14,0.2-28,0.2-42c0-0.2-0.3-0.4-0.5-0.4c-0.2,0-0.3,0.2-0.4,0.4c0,14-0.3,28,0.2,42c0,0.1,0.1,0.3,0.3,0.3
		C503.9,70.4,504,70.3,504,70.1L504,70.1z"/>
	<path d="M490,60.1c0.7-12.9,0.5-25.8,0.7-38.7c0-0.2-0.2-0.4-0.4-0.4s-0.4,0.2-0.4,0.4c-0.2,12.9-0.7,25.8-0.4,38.7
		c0,0.1,0.1,0.2,0.2,0.2C489.9,60.2,490,60.2,490,60.1z"/>
	<path d="M9,86.1c1.3-17.6,0.2-35.4,0.4-53c0-0.4-0.3-0.7-0.7-0.7S8,32.7,8,33.1c-0.3,17.6-0.1,35.4,0.7,53c0,0.1,0.1,0.1,0.1,0.1
		C8.9,86.2,9,86.2,9,86.1z"/>
	<path d="M22.3,84.1c2.3-18.7,3.6-38.5,1.8-57.3c0-0.4-0.3-0.7-0.7-0.7c-0.4,0-0.7,0.3-0.7,0.7c-0.2,19.1,0.2,38.2-0.6,57.3
		C22.1,84.2,22.3,84.2,22.3,84.1z"/>
	<path d="M218.3,344c-0.5-2.9-1.3-5.7-2.2-8.5c-0.1-0.3-0.4-0.4-0.7-0.3c-0.2,0.1-0.4,0.3-0.3,0.6c0.6,2.9,1.4,5.7,2.3,8.5
		c0.1,0.2,0.4,0.3,0.6,0.2C218.2,344.4,218.3,344.2,218.3,344L218.3,344z"/>
	<path d="M288.9,341.7c1.1-2.4,2.1-4.8,3-7.3c0.2-0.5-0.6-0.7-0.9-0.2c-1,2.4-1.9,4.9-2.7,7.3C288.3,341.8,288.7,342,288.9,341.7
		L288.9,341.7z"/>
	<path d="M61.9,53.8c30.1,5.2,61.4-3.7,91.3-6.8c27.3-2.9,55.8-1.9,79.9,12.5c1.5,0.9,2.8-1.4,1.3-2.3
		c-22.7-14.4-51.1-15.7-77.1-13.3c-15.2,1.4-30.2,4.1-45.3,6.2c-16.6,2.3-33.3,3.2-50,2.8C61.5,52.9,61.4,53.7,61.9,53.8L61.9,53.8z
		"/>
	<path d="M61.9,64.8c30.1,5.2,61.4-3.7,91.3-6.8c27.3-2.9,55.8-1.9,79.9,12.5c1.5,0.9,2.8-1.4,1.3-2.3
		c-22.7-14.4-51.1-15.7-77.1-13.3c-15.2,1.4-30.2,4.1-45.3,6.2c-16.6,2.3-33.3,3.2-50,2.8C61.5,63.9,61.4,64.7,61.9,64.8L61.9,64.8z
		"/>
	<path d="M61.9,75.8c30.1,5.2,61.4-3.7,91.3-6.8c27.3-2.9,55.8-1.9,79.9,12.5c1.5,0.9,2.8-1.4,1.3-2.3
		c-22.7-14.4-51.1-15.7-77.1-13.3c-15.2,1.4-30.2,4.1-45.3,6.2c-16.6,2.3-33.3,3.2-50,2.8C61.5,74.9,61.4,75.7,61.9,75.8L61.9,75.8z
		"/>
	<path d="M61.9,86.8c30.1,5.2,61.4-3.7,91.3-6.8c27.3-2.9,55.8-1.9,79.9,12.5c1.5,0.9,2.8-1.4,1.3-2.3
		c-22.7-14.4-51.1-15.7-77.1-13.3c-15.2,1.4-30.2,4.1-45.3,6.2c-16.6,2.3-33.3,3.2-50,2.8C61.5,85.9,61.4,86.7,61.9,86.8L61.9,86.8z
		"/>
	<path d="M61.9,97.8c30.1,5.2,61.4-3.7,91.3-6.8c27.3-2.9,55.8-1.9,79.9,12.5c1.5,0.9,2.8-1.4,1.3-2.3
		c-22.7-14.4-51.1-15.7-77.1-13.3c-15.2,1.4-30.2,4.1-45.3,6.2c-16.6,2.3-33.3,3.2-50,2.8C61.5,96.9,61.4,97.7,61.9,97.8L61.9,97.8z
		"/>
	<path d="M61.9,108.8c30.1,5.2,61.4-3.7,91.3-6.8c27.3-2.9,55.8-1.9,79.9,12.5c1.5,0.9,2.8-1.4,1.3-2.3
		c-22.7-14.4-51.1-15.7-77.1-13.3c-15.2,1.4-30.2,4.1-45.3,6.2c-16.6,2.3-33.3,3.2-50,2.8C61.5,107.8,61.4,108.7,61.9,108.8
		L61.9,108.8z"/>
	<path d="M61.9,119.8c30.1,5.2,61.4-3.7,91.3-6.8c27.3-2.9,55.8-1.9,79.9,12.5c1.5,0.9,2.8-1.4,1.3-2.3
		c-22.7-14.4-51.1-15.7-77.1-13.3c-15.2,1.4-30.2,4.1-45.3,6.2c-16.6,2.3-33.3,3.2-50,2.8C61.5,118.8,61.4,119.7,61.9,119.8
		L61.9,119.8z"/>
	<path d="M61.9,130.8c30.1,5.2,61.4-3.7,91.3-6.8c27.3-2.9,55.8-1.9,79.9,12.5c1.5,0.9,2.8-1.4,1.3-2.3
		c-22.7-14.4-51.1-15.7-77.1-13.3c-15.2,1.4-30.2,4.1-45.3,6.2c-16.6,2.3-33.3,3.2-50,2.8C61.5,129.8,61.4,130.7,61.9,130.8
		L61.9,130.8z"/>
	<path d="M61.9,141.8c30.1,5.2,61.4-3.7,91.3-6.8c27.3-2.9,55.8-1.9,79.9,12.5c1.5,0.9,2.8-1.4,1.3-2.3
		c-22.7-14.4-51.1-15.7-77.1-13.3c-15.2,1.4-30.2,4.1-45.3,6.2c-16.6,2.3-33.3,3.2-50,2.8C61.5,140.8,61.4,141.7,61.9,141.8
		L61.9,141.8z"/>
	<path d="M61.9,152.8c30.1,5.2,61.4-3.7,91.3-6.8c27.3-2.9,55.8-1.9,79.9,12.5c1.5,0.9,2.8-1.4,1.3-2.3
		c-22.7-14.4-51.1-15.7-77.1-13.3c-15.2,1.4-30.2,4.1-45.3,6.2c-16.6,2.3-33.3,3.2-50,2.8C61.5,151.8,61.4,152.7,61.9,152.8
		L61.9,152.8z"/>
	<path d="M61.9,163.8c30.1,5.2,61.4-3.7,91.3-6.8c27.3-2.9,55.8-1.9,79.9,12.5c1.5,0.9,2.8-1.4,1.3-2.3
		c-22.7-14.4-51.1-15.7-77.1-13.3c-15.2,1.4-30.2,4.1-45.3,6.2c-16.6,2.3-33.3,3.2-50,2.8C61.5,162.8,61.4,163.7,61.9,163.8
		L61.9,163.8z"/>
	<path d="M61.9,174.8c30.1,5.2,61.4-3.7,91.3-6.8c27.3-2.9,55.8-1.9,79.9,12.5c1.5,0.9,2.8-1.4,1.3-2.3
		c-22.7-14.4-51.1-15.7-77.1-13.3c-15.2,1.4-30.2,4.1-45.3,6.2c-16.6,2.3-33.3,3.2-50,2.8C61.5,173.8,61.4,174.7,61.9,174.8
		L61.9,174.8z"/>
	<path d="M61.9,185.8c30.1,5.2,61.4-3.7,91.3-6.8c27.3-2.9,55.8-1.9,79.9,12.5c1.5,0.9,2.8-1.4,1.3-2.3
		c-22.7-14.4-51.1-15.7-77.1-13.3c-15.2,1.4-30.2,4.1-45.3,6.2c-16.6,2.3-33.3,3.2-50,2.8C61.5,184.8,61.4,185.7,61.9,185.8
		L61.9,185.8z"/>
	<path d="M61.9,196.8c30.1,5.2,61.4-3.7,91.3-6.8c27.3-2.9,55.8-1.9,79.9,12.5c1.5,0.9,2.8-1.4,1.3-2.3
		c-22.7-14.4-51.1-15.7-77.1-13.3c-15.2,1.4-30.2,4.1-45.3,6.2c-16.6,2.3-33.3,3.2-50,2.8C61.5,195.8,61.4,196.7,61.9,196.8
		L61.9,196.8z"/>
	<path d="M61.9,208.8c30.1,5.2,61.4-3.7,91.3-6.8c27.3-2.9,55.8-1.9,79.9,12.5c1.5,0.9,2.8-1.4,1.3-2.3
		c-22.7-14.4-51.1-15.7-77.1-13.3c-15.2,1.4-30.2,4.1-45.3,6.2c-16.6,2.3-33.3,3.2-50,2.8C61.5,207.8,61.4,208.7,61.9,208.8
		L61.9,208.8z"/>
	<path d="M61.9,219.8c30.1,5.2,61.4-3.7,91.3-6.8c27.3-2.9,55.8-1.9,79.9,12.5c1.5,0.9,2.8-1.4,1.3-2.3
		c-22.7-14.4-51.1-15.7-77.1-13.3c-15.2,1.4-30.2,4.1-45.3,6.2c-16.6,2.3-33.3,3.2-50,2.8C61.5,218.8,61.4,219.7,61.9,219.8
		L61.9,219.8z"/>
	<path d="M61.9,230.8c30.1,5.2,61.4-3.7,91.3-6.8c27.3-2.9,55.8-1.9,79.9,12.5c1.5,0.9,2.8-1.4,1.3-2.3
		c-22.7-14.4-51.1-15.7-77.1-13.3c-15.2,1.4-30.2,4.1-45.3,6.2c-16.6,2.3-33.3,3.2-50,2.8C61.5,229.8,61.4,230.7,61.9,230.8
		L61.9,230.8z"/>
	<path d="M61.9,241.8c30.1,5.2,61.4-3.7,91.3-6.8c27.3-2.9,55.8-1.9,79.9,12.5c1.5,0.9,2.8-1.4,1.3-2.3
		c-22.7-14.4-51.1-15.7-77.1-13.3c-15.2,1.4-30.2,4.1-45.3,6.2c-16.6,2.3-33.3,3.2-50,2.8C61.5,240.8,61.4,241.7,61.9,241.8
		L61.9,241.8z"/>
	<path d="M61.9,252.8c30.1,5.2,61.4-3.7,91.3-6.8c27.3-2.9,55.8-1.9,79.9,12.5c1.5,0.9,2.8-1.4,1.3-2.3
		c-22.7-14.4-51.1-15.7-77.1-13.3c-15.2,1.4-30.2,4.1-45.3,6.2c-16.6,2.3-33.3,3.2-50,2.8C61.5,251.8,61.4,252.7,61.9,252.8
		L61.9,252.8z"/>
	<path d="M61.9,264.8c30.1,5.2,61.4-3.7,91.3-6.8c27.3-2.9,55.8-1.9,79.9,12.5c1.5,0.9,2.8-1.4,1.3-2.3
		c-22.7-14.4-51.1-15.7-77.1-13.3c-15.2,1.4-30.2,4.1-45.3,6.2c-16.6,2.3-33.3,3.2-50,2.8C61.5,263.8,61.4,264.7,61.9,264.8
		L61.9,264.8z"/>
	<path d="M61.9,275.8c30.1,5.2,61.4-3.7,91.3-6.8c27.3-2.9,55.8-1.9,79.9,12.5c1.5,0.9,2.8-1.4,1.3-2.3
		c-22.7-14.4-51.1-15.7-77.1-13.3c-15.2,1.4-30.2,4.1-45.3,6.2c-16.6,2.3-33.3,3.2-50,2.8C61.5,274.8,61.4,275.7,61.9,275.8
		L61.9,275.8z"/>
	<path d="M452.8,52.8c-16.7,0.4-33.4-0.6-50-2.8c-15.1-2.1-30.1-4.8-45.3-6.2c-26-2.3-54.4-1.1-77.1,13.3c-1.4,0.9-0.1,3.2,1.3,2.3
		c24.2-14.4,52.7-15.4,80-12.5c29.8,3.1,61.2,12,91.2,6.8C453.4,53.7,453.3,52.8,452.8,52.8L452.8,52.8z"/>
	<path d="M452.8,63.8c-16.7,0.4-33.4-0.6-50-2.8c-15.1-2.1-30.1-4.8-45.3-6.2c-26-2.3-54.4-1.1-77.1,13.3c-1.4,0.9-0.1,3.2,1.3,2.3
		c24.2-14.4,52.7-15.4,80-12.5c29.8,3.1,61.2,12,91.2,6.8C453.4,64.7,453.3,63.8,452.8,63.8L452.8,63.8z"/>
	<path d="M452.8,74.8c-16.7,0.4-33.4-0.6-50-2.8c-15.1-2.1-30.1-4.8-45.3-6.2c-26-2.3-54.4-1.1-77.1,13.3c-1.4,0.9-0.1,3.2,1.3,2.3
		c24.2-14.4,52.7-15.4,80-12.5c29.8,3.1,61.2,12,91.2,6.8C453.4,75.7,453.3,74.8,452.8,74.8L452.8,74.8z"/>
	<path d="M452.8,85.8c-16.7,0.4-33.4-0.6-50-2.8c-15.1-2.1-30.1-4.8-45.3-6.2c-26-2.3-54.4-1.1-77.1,13.3c-1.4,0.9-0.1,3.2,1.3,2.3
		c24.2-14.4,52.7-15.4,80-12.5c29.8,3.1,61.2,12,91.2,6.8C453.4,86.7,453.3,85.8,452.8,85.8L452.8,85.8z"/>
	<path d="M452.8,96.8c-16.7,0.4-33.4-0.6-50-2.8c-15.1-2.1-30.1-4.8-45.3-6.2c-26-2.3-54.4-1.1-77.1,13.3c-1.4,0.9-0.1,3.2,1.3,2.3
		c24.2-14.4,52.7-15.4,80-12.5c29.8,3.1,61.2,12,91.2,6.8C453.4,97.7,453.3,96.8,452.8,96.8L452.8,96.8z"/>
	<path d="M452.8,107.8c-16.7,0.4-33.4-0.6-50-2.8c-15.1-2.1-30.1-4.8-45.3-6.2c-26-2.3-54.4-1.1-77.1,13.3c-1.4,0.9-0.1,3.2,1.3,2.3
		c24.1-14.4,52.7-15.4,79.9-12.5c29.8,3.1,61.2,12,91.2,6.8C453.4,108.7,453.3,107.8,452.8,107.8L452.8,107.8z"/>
	<path d="M452.8,118.8c-16.7,0.4-33.4-0.6-50-2.8c-15.1-2.1-30.1-4.8-45.3-6.2c-26-2.3-54.4-1.1-77.1,13.3c-1.4,0.9-0.1,3.2,1.3,2.3
		c24.1-14.4,52.7-15.4,79.9-12.5c29.8,3.1,61.2,12,91.2,6.8C453.4,119.7,453.3,118.8,452.8,118.8L452.8,118.8z"/>
	<path d="M452.8,129.8c-16.7,0.4-33.4-0.6-50-2.8c-15.1-2.1-30.1-4.8-45.3-6.2c-26-2.3-54.4-1.1-77.1,13.3c-1.4,0.9-0.1,3.2,1.3,2.3
		c24.1-14.4,52.7-15.4,79.9-12.5c29.8,3.1,61.2,12,91.2,6.8C453.4,130.7,453.3,129.8,452.8,129.8L452.8,129.8z"/>
	<path d="M452.8,140.8c-16.7,0.4-33.4-0.6-50-2.8c-15.1-2.1-30.1-4.8-45.3-6.2c-26-2.3-54.4-1.1-77.1,13.3c-1.4,0.9-0.1,3.2,1.3,2.3
		c24.1-14.4,52.7-15.4,79.9-12.5c29.8,3.1,61.2,12,91.2,6.8C453.4,141.7,453.3,140.8,452.8,140.8L452.8,140.8z"/>
	<path d="M452.8,151.8c-16.7,0.4-33.4-0.6-50-2.8c-15.1-2.1-30.1-4.8-45.3-6.2c-26-2.3-54.4-1.1-77.1,13.3c-1.4,0.9-0.1,3.2,1.3,2.3
		c24.1-14.4,52.7-15.4,79.9-12.5c29.8,3.1,61.2,12,91.2,6.8C453.4,152.7,453.3,151.8,452.8,151.8L452.8,151.8z"/>
	<path d="M452.8,162.8c-16.7,0.4-33.4-0.6-50-2.8c-15.1-2.1-30.1-4.8-45.3-6.2c-26-2.3-54.4-1.1-77.1,13.3c-1.4,0.9-0.1,3.2,1.3,2.3
		c24.1-14.4,52.7-15.4,79.9-12.5c29.8,3.1,61.2,12,91.2,6.8C453.4,163.7,453.3,162.8,452.8,162.8L452.8,162.8z"/>
	<path d="M452.8,173.8c-16.7,0.4-33.4-0.6-50-2.8c-15.1-2.1-30.1-4.8-45.3-6.2c-26-2.3-54.4-1.1-77.1,13.3c-1.4,0.9-0.1,3.2,1.3,2.3
		c24.1-14.4,52.7-15.4,79.9-12.5c29.8,3.1,61.2,12,91.2,6.8C453.4,174.7,453.3,173.8,452.8,173.8L452.8,173.8z"/>
	<path d="M452.8,184.8c-16.7,0.4-33.4-0.6-50-2.8c-15.1-2.1-30.1-4.8-45.3-6.2c-26-2.3-54.4-1.1-77.1,13.3c-1.4,0.9-0.1,3.2,1.3,2.3
		c24.1-14.4,52.7-15.4,79.9-12.5c29.8,3.1,61.2,12,91.2,6.8C453.4,185.7,453.3,184.8,452.8,184.8L452.8,184.8z"/>
	<path d="M452.8,195.8c-16.7,0.4-33.4-0.6-50-2.8c-15.1-2.1-30.1-4.8-45.3-6.2c-26-2.3-54.4-1.1-77.1,13.3c-1.4,0.9-0.1,3.2,1.3,2.3
		c24.1-14.4,52.7-15.4,79.9-12.5c29.8,3.1,61.2,12,91.2,6.8C453.4,196.7,453.3,195.8,452.8,195.8L452.8,195.8z"/>
	<path d="M452.8,207.8c-16.7,0.4-33.4-0.6-50-2.8c-15.1-2.1-30.1-4.8-45.3-6.2c-26-2.3-54.4-1.1-77.1,13.3c-1.4,0.9-0.1,3.2,1.3,2.3
		c24.1-14.4,52.7-15.4,79.9-12.5c29.8,3.1,61.2,12,91.2,6.8C453.4,208.7,453.3,207.8,452.8,207.8L452.8,207.8z"/>
	<path d="M452.8,218.8c-16.7,0.4-33.4-0.6-50-2.8c-15.1-2.1-30.1-4.8-45.3-6.2c-26-2.3-54.4-1.1-77.1,13.3c-1.4,0.9-0.1,3.2,1.3,2.3
		c24.1-14.4,52.7-15.4,79.9-12.5c29.8,3.1,61.2,12,91.2,6.8C453.4,219.7,453.3,218.8,452.8,218.8L452.8,218.8z"/>
	<path d="M452.8,229.8c-16.7,0.4-33.4-0.6-50-2.8c-15.1-2.1-30.1-4.8-45.3-6.2c-26-2.3-54.4-1.1-77.1,13.3c-1.4,0.9-0.1,3.2,1.3,2.3
		c24.1-14.4,52.7-15.4,79.9-12.5c29.8,3.1,61.2,12,91.2,6.8C453.4,230.7,453.3,229.8,452.8,229.8L452.8,229.8z"/>
	<path d="M452.8,240.8c-16.7,0.4-33.4-0.6-50-2.8c-15.1-2.1-30.1-4.8-45.3-6.2c-26-2.3-54.4-1.1-77.1,13.3c-1.4,0.9-0.1,3.2,1.3,2.3
		c24.1-14.4,52.7-15.4,79.9-12.5c29.8,3.1,61.2,12,91.2,6.8C453.4,241.7,453.3,240.8,452.8,240.8L452.8,240.8z"/>
	<path d="M452.8,251.8c-16.7,0.4-33.4-0.6-50-2.8c-15.1-2.1-30.1-4.8-45.3-6.2c-26-2.3-54.4-1.1-77.1,13.3c-1.4,0.9-0.1,3.2,1.3,2.3
		c24.1-14.4,52.7-15.4,79.9-12.5c29.8,3.1,61.2,12,91.2,6.8C453.4,252.7,453.3,251.8,452.8,251.8L452.8,251.8z"/>
	<path d="M452.8,263.8c-16.7,0.4-33.4-0.6-50-2.8c-15.1-2.1-30.1-4.8-45.3-6.2c-26-2.3-54.4-1.1-77.1,13.3c-1.4,0.9-0.1,3.2,1.3,2.3
		c24.1-14.4,52.7-15.4,79.9-12.5c29.8,3.1,61.2,12,91.2,6.8C453.4,264.7,453.3,263.8,452.8,263.8L452.8,263.8z"/>
	<path d="M452.8,274.8c-16.7,0.4-33.4-0.6-50-2.8c-15.1-2.1-30.1-4.8-45.3-6.2c-26-2.3-54.4-1.1-77.1,13.3c-1.4,0.9-0.1,3.2,1.3,2.3
		c24.1-14.4,52.7-15.4,79.9-12.5c29.8,3.1,61.2,12,91.2,6.8C453.4,275.7,453.3,274.8,452.8,274.8L452.8,274.8z"/>
	<path d="M257.4,338.4c1.4-26.3,1.8-52.6,2.4-78.9c1.1-51.2,1.6-102.4,2.2-153.6c0.2-13.2,0.3-26.5,0.5-39.7
		c0.1-5.7,0.1-11.3,0.1-17c0-5.4,0.4-10.9-0.8-16.2c-0.9-4-7-3.9-8,0c-2.2,9.2-1,19.8-1.1,29.2c0,11.5,0,23,0,34.5
		c0,25.8-0.1,51.5-0.1,77.3c0,45.4-0.6,91,0.4,136.4c0.2,9.4,0.4,18.7,0.8,28c0,1,0.8,1.8,1.8,1.8
		C256.6,340.2,257.4,339.4,257.4,338.4L257.4,338.4z"/>
	<path d="M484.5,317.9c1-24.5,1-49,1.2-73.5c0.4-50.3,0.4-100.6,0.6-150.8c0.1-14.1,0.1-28.2,0.2-42.3c0-6.7,0.1-13.3,0.1-20
		c0-6.2,0.5-12.5-0.8-18.6c-0.9-3.9-7-3.9-8,0c-1.3,5.3-0.9,10.8-0.9,16.3c0,5.8,0,11.6,0,17.4c0.1,12.4,0.1,24.8,0.2,37.3
		c0.2,26.3,0.4,52.6,0.7,78.9c0.5,43.2,0.6,86.4,2.2,129.6c0.3,8.6,0.7,17.2,1.1,25.9c0,1,0.8,1.8,1.8,1.8S484.4,318.9,484.5,317.9
		L484.5,317.9z"/>
	<path d="M27,16.3c-1.8,34.6-2.2,69.3-2.6,104c-0.7,54.8-1.3,109.6-1.8,164.4c-0.1,9.1-0.1,18.2-0.2,27.4c-0.2,2.9-0.1,5.8,0.2,8.7
		c0.1,0.7,0.3,1.4,0.5,2.1c0.5,1.9,0,1.3,0-0.3c0,5.3,8.2,5.3,8.2,0c0,0.5-0.7,3,0,0.5c0.1-0.5,0.3-1.1,0.4-1.7
		c0.4-2.3,0.5-4.7,0.4-7c0-7.5,0.1-14.9,0.1-22.4c0-24.5,0-48.9,0-73.4c0-54.8-0.2-109.6-0.7-164.4c-0.1-12.6-0.5-25.2-1-37.8
		c0-1-0.8-1.8-1.8-1.8S27,15.4,27,16.3L27,16.3z"/>
	<path d="M254.9,35.8c7-3.9,13.2-9,20.3-12.9c6.8-3.7,13.8-6.7,21.1-9.1c14.7-4.7,30.1-7.2,45.5-7.4c28.9-0.6,56.4,8,84.9,11.1
		c18.7,2.1,37.7,1.1,56.1-2.8c4.7-1,2.7-8.1-2-7.2c-17.1,3.3-34.5,4.1-51.8,2.5c-15-1.3-29.7-4.4-44.5-6.8
		c-29.1-4.8-59.3-5-87.5,4.9c-7.6,2.7-15,6-22,10c-7.5,4.3-15.9,9.2-21.7,15.7c-0.5,0.5-0.6,1.3-0.1,1.8
		C253.7,36,254.4,36.1,254.9,35.8L254.9,35.8z"/>
	<path d="M28,16.9c14.8,1.6,29.8,2.9,44.7,3.2c16.1,0.3,31.7-1.8,47.4-4.6c29.1-5.2,60.3-10.2,89.6-3c7.6,1.9,15,4.6,22,8.3
		c7.6,4,14,9.3,20.8,14.5c3.7,2.8,7.9-3.1,4.8-6.3C237.4,8.1,205.9,1,178,1.3c-15.6,0.2-31.2,2.3-46.6,5.1c-17,3-33.7,7-51,7.9
		c-17.5,0.9-35-1-52.5-0.2c-0.8,0-1.4,0.6-1.4,1.4C26.6,16.2,27.2,16.9,28,16.9L28,16.9z"/>
	<path d="M254.4,339.1c3.1-4.8,6-9.3,10.5-13c5-4,10.7-7.2,16.8-9.4c13.1-5,27.2-6.9,41-7.5c13.6-0.7,27.3-0.1,40.8,2
		c17.5,2.8,34.5,7.6,52,10c21.7,2.9,43.7,3,65.4,0.4c4.7-0.6,4.8-7.9,0-7.4c-20.3,2.2-40.8,2.2-61.1,0c-18.8-2.1-37-7.1-55.6-9.6
		c-27.6-3.7-58.3-3.1-84.3,7.9c-11.1,4.7-24.6,13.2-27.8,25.7c-0.2,0.7,0.2,1.4,0.9,1.6C253.5,339.8,254.1,339.6,254.4,339.1
		L254.4,339.1z"/>
	<path d="M27.1,326.6c12.5,1.5,25.2,1.8,37.8,1c14.5-1.1,28.9-3.9,43.2-6.6c30.2-5.8,61.8-12.6,92.6-7.1c8.9,1.6,17.6,4.2,25.9,7.8
		c9.4,4.2,17.4,10,26.1,15.4c3.8,2.4,8.3-3.2,4.8-6.3c-24.7-21.7-60.2-28.5-92-26.2s-62.6,12-94.2,16.8c-14.7,2.2-29.4,1.7-44.1,2.4
		c-0.8,0-1.4,0.6-1.4,1.4S26.4,326.7,27.1,326.6L27.1,326.6L27.1,326.6z"/>
	<path d="M14.3,27.3c-1.7,34.6-2,69.3-2.3,104c-0.5,54.8-1,109.6-1.4,164.4c-0.1,9.1-0.1,18.2-0.1,27.4c-0.2,2.9-0.1,5.8,0.2,8.7
		c0.1,0.7,0.3,1.4,0.5,2.1c0.5,1.9,0,1.3,0-0.3c0,5.3,8.2,5.3,8.3,0c0,0.5-0.7,3,0,0.5c0.1-0.5,0.3-1.1,0.4-1.7
		c0.4-2.3,0.5-4.7,0.4-7c0-7.5,0.1-14.9,0.1-22.4c-0.1-24.5-0.2-48.9-0.2-73.4c-0.2-54.8-0.5-109.6-1.1-164.4
		c-0.1-12.6-0.5-25.2-1.1-37.8c0-1-0.8-1.8-1.8-1.8S14.2,26.4,14.3,27.3L14.3,27.3z"/>
	<path d="M16.2,338.6c28.7,2.9,56.2,0.2,84.5-4.7c32.9-5.7,66.9-11.8,100.4-7.9c8.9,1,17.8,3,26.3,5.8c9,3,16.9,7.6,25.2,12.2
		c4.6,2.5,8-3.9,4-6.9c-12.4-9.5-29-14.7-44.1-17.5c-16.4-3-33-3.2-49.6-2c-34.1,2.5-67,12.2-100.9,16.1c-15.2,1.8-30.5,1.3-45.8,2
		c-0.8,0-1.4,0.6-1.4,1.4S15.4,338.6,16.2,338.6L16.2,338.6z"/>
	<path d="M16.4,26.8c1,2.1,3.4,1.9,5.5,2c2.3,0.2,4.7,0,6.9-0.8c3.1-1.2,2-5.9-1.4-5.1c-1.9,0.4-3.8,1.1-5.7,1.4s-3.8-0.1-5.1,1.5
		C16.3,26.1,16.2,26.4,16.4,26.8L16.4,26.8z"/>
	<path d="M15.1,25.7c-4.3,1.8-9.9,4.6-13.1,8.1c-1.2,1.4-1.1,2.1-1.1,3.7c-0.1,5.3-0.1,10.6-0.1,16C0.7,76.7,1,99.9,0.7,123.2
		c-1,58.7-0.6,117.5-0.6,176.2c0,14,0,28,0,42c0,4,6.1,4,6.1,0c0-37,0-74.5,0-111.8C6,173.8,6,118,5.7,62.2c0-7.5-0.1-15.1-0.1-22.6
		c0-0.7,0.4-3.2,0-3.7c1,1.3-1.8,1.8,0.3,0.8c1.3-0.7,2.6-2.2,3.7-3.2c2.4-2,4.6-4.2,6.5-6.6c0.2-0.4,0.1-0.9-0.3-1.2
		C15.6,25.7,15.3,25.7,15.1,25.7L15.1,25.7z"/>
	<path d="M252.7,342.2c-7-3.4-15-5.2-22.5-7.1c-13.5-3.6-27.4-5.2-41.3-4.9c-39.5,1.2-78.4,9.4-117.8,12.3
		C49.1,344,26.9,343.2,5,340c-4.5-0.7-6.7,6-1.9,7c36.6,8.1,76.1,2.2,112.8-2.8c35-4.8,71.4-12.1,106.7-5.7
		c9.8,1.8,19.3,4.8,29.1,6.3C253.1,345,254.3,342.9,252.7,342.2L252.7,342.2z"/>
	<path d="M494,22.3c-1.5,34.4-1.7,69-1.8,103.4c-0.2,54.7-0.5,109.4-0.6,164.1c0,9.1,0,18.2,0,27.3c-0.1,2.9-0.1,5.8,0.2,8.6
		c0.1,0.7,0.3,1.3,0.5,2c0.5,1.8,0,1.3,0-0.3c0,5.3,8.3,5.3,8.2,0c0,0.5-0.6,2.9,0,0.5c0.1-0.6,0.3-1.1,0.4-1.7
		c0.3-2.3,0.4-4.7,0.3-7.1c0-7.5,0-15,0-22.5l-0.6-72.7c-0.4-54.7-1-109.4-1.9-164.2c-0.2-12.5-0.7-25.1-1.3-37.6
		c0-1-0.8-1.8-1.8-1.8S494,21.3,494,22.3L494,22.3L494,22.3z"/>
	<path d="M496.6,328.8c-15.7-0.7-31.4,0.2-47-0.4c-17.5-0.7-34.6-3.7-51.8-7c-30.1-5.8-60.9-11.5-91.6-6.4c-17.2,2.9-35.8,9-50,19.2
		c-1.8,1.2-2.3,3.7-1.1,5.5c1.1,1.7,3.3,2.3,5.1,1.4c7.5-3.8,14.6-8,22.5-11.1c6.9-2.7,14-4.8,21.3-6.4c14.5-3,29.4-3.3,44-2.1
		c32.6,2.5,64.2,11.6,96.9,12.5c17.3,0.3,34.5-0.4,51.7-2.2c0.8,0,1.4-0.6,1.4-1.4S497.3,328.8,496.6,328.8L496.6,328.8z"/>
	<path d="M496.4,21c-1.2-1.8-3.4-1.5-5.4-2c-2.2-0.6-4.4-1.5-6.6-2c-3.4-0.9-4.5,3.8-1.4,5c2.4,0.8,4.9,1.2,7.4,1.3
		c2.1,0.1,4.9,0.6,6-1.6C496.5,21.5,496.5,21.2,496.4,21L496.4,21z"/>
	<path d="M495.7,21c1.5,1.9,3.2,3.7,5,5.3c1.2,1,2.4,2.1,3.5,3.1c0.5,0.5,1.1,1,1.7,1.4c1.6,0.8,0.1,1.3,0.3-0.9
		c-0.1,0.8,0,1.6,0,2.4c0,5.8,0,11.5-0.1,17.3c-0.1,23.5,0.2,47-0.1,70.4c-1,58.1-0.5,116.1-0.4,174.2c0,13.8,0,27.3,0,41.3
		c0,4,6.1,4,6.1,0c0-38,0-75.8-0.1-113.7c-0.1-56-0.2-111.9-0.5-167.9c0-7.1-0.1-14.1-0.1-21.2c0-1,0.3-2.5-0.1-3.4
		c-0.8-2.1-4.3-3.8-6.1-4.9c-2.5-1.8-5.2-3.3-8.1-4.6c-0.4-0.1-0.9,0.1-1.1,0.5C495.5,20.5,495.5,20.7,495.7,21L495.7,21z"/>
	<path d="M257.2,344.8c21.7-7.4,44.3-11.6,67.1-12.6c39.6-1.6,78.8,8.4,118.2,11.3c21.9,1.6,44.6,2.3,66.2-2.5c4.7-1,2.6-7.7-2-7
		c-20,3-40.3,4-60.5,2.9c-20.1-1.1-40-4-59.9-6.7c-19.6-2.7-39.4-4.9-59.2-4.1c-17.8,0.8-35.4,3.8-52.5,8.9
		c-6.1,1.8-13.4,3.5-18.6,7.3C254.8,343,255.5,345.4,257.2,344.8L257.2,344.8z"/>
	<path d="M200.9,333.6c3.8,0.8,6.8,3.6,7.9,7.3c0.6,1.7,0.8,3.4,1.8,5c2.2,3.5,5.7,5.8,9.8,6.5c6.1,1,12.8,0.3,19,0.4
		c6.9,0.1,13.8,0.2,20.8,0.2c6.6,0,13.2,0.1,19.8,0.1c4.4,0,8.7-0.6,12.1-3.6c3.6-3.2,3.5-8,6.4-11.4c1.9-2.2,5.5-3.8,8.3-4.7
		c3.1-1,1.8-5.8-1.3-4.8c-5.5,1.7-10.9,4.3-13.3,9.9c-1.1,2.6-1.7,5-4.2,6.6s-5.1,1.8-8,1.8c-6.9,0-13.8-0.1-20.8-0.1
		c-6.6,0-13.2,0-19.8,0c-6.1,0-13.6,1.2-19.5-0.3c-5.7-1.4-5.8-6.3-9-10.1c-2.5-2.8-6.1-4.3-9.9-3.9
		C200.3,332.4,200.1,333.4,200.9,333.6L200.9,333.6z"/>
	<path d="M220.5,337.2c-0.3,1.4-0.5,2.9-0.8,4.3c-0.1,0.6,0.2,1.5,0.9,1.6c14.7,2.1,29.8,2,44.6,1.4c3.3-0.1,28.8,0.2,20.6-9.2
		c-1.7-2-4.6,0.9-2.9,2.9c0.4,0.5-7.5,1.6-8.2,1.7c-2.9,0.2-5.8,0.5-8.6,0.6c-5.4,0.3-10.9,0.5-16.4,0.6c-5.1,0.1-10.3,0-15.4-0.1
		c-2.9,0-5.8-0.1-8.6-0.2c-3.4-0.1-3.6-0.2-4.2-3.5c-0.1-0.3-0.4-0.5-0.7-0.4C220.7,336.9,220.6,337.1,220.5,337.2z"/>
</g>
</svg>
