<svg id="Layer_1" data-name="Layer 1" xmlns="http://www.w3.org/2000/svg" viewBox="0 0 291 406.2"><defs><style>.cls-1{fill:#e0e0e0;}.cls-2{fill:#58595b;}.cls-3{fill:#231f20;}.cls-4{fill:#414042;}.cls-5{fill:#4d4d4f;}.cls-6{fill:#333132;}</style></defs><g id="Layer_2" data-name="Layer 2"><ellipse class="cls-1" cx="136.4" cy="395.8" rx="136.4" ry="10.4"/><rect class="cls-2" x="156.2" y="335.8" width="38.4" height="45.1"/><rect class="cls-3" x="40.8" y="302.2" width="76.8" height="6.2"/><rect class="cls-3" x="73.2" y="249.2" width="20.3" height="20.3"/><rect class="cls-3" x="97.03" y="249.24" width="13.2" height="20.3" transform="translate(-153.06 149.25) rotate(-45)"/><rect class="cls-3" x="52.69" y="252.75" width="20.3" height="13.2" transform="translate(-164.99 120.4) rotate(-45)"/><path class="cls-4" d="M76.4,0h14a2.26,2.26,0,0,1,2.3,2.3V54.4H74.1V2.4A2.29,2.29,0,0,1,76.4,0Z"/><path class="cls-3" d="M204.7,130.3h0v23c48,0,61.3,41.1,61.3,77.8s-13.2,78-61.3,78v22.8h0c55.6,0,86.3-45.1,86.3-100.7S260.3,130.3,204.7,130.3Z"/><path class="cls-5" d="M90.4,115.3H197.2a7.55,7.55,0,0,1,7.5,7.5h0v43.3a7.55,7.55,0,0,1-7.5,7.5H90.4V115.3Z"/><path class="cls-6" d="M67.6,32.7H99.1a3.69,3.69,0,0,1,3.7,3.7V93.7H63.9V36.4a3.69,3.69,0,0,1,3.7-3.7Z"/><path class="cls-3" d="M55.7,91.1H111a9.39,9.39,0,0,1,9.4,9.4V259.3H46.2V100.6a9.5,9.5,0,0,1,9.5-9.5Z"/><path class="cls-5" d="M35.6,240.5h84.9v18.9H16.8a18.8,18.8,0,0,1,18.8-18.9Z"/><circle class="cls-4" cx="204.7" cy="144.5" r="23"/><circle class="cls-3" cx="204.7" cy="144.5" r="9.7"/><path class="cls-4" d="M90.4,306.8v14.9a6.44,6.44,0,0,0,6.4,6.4h49v2.1a12.5,12.5,0,0,0,12.5,12.5h33.9a12.42,12.42,0,0,0,12.5-12.4h0V309.4a2.46,2.46,0,0,0-2.4-2.5H90.4Z"/><path class="cls-2" d="M29.9,319.9h77.5a13.08,13.08,0,0,0,13.1-13.1v-.1H16.8A13.1,13.1,0,0,0,29.9,319.9Z"/><path class="cls-3" d="M52,366.7H212.1a25.48,25.48,0,0,1,25.5,25.5v3.6H25.9v-3.1a26.1,26.1,0,0,1,26.1-26Z"/></g></svg>